<svg width="24" height="24" viewBox="0 0 24 24" fill="none" xmlns="http://www.w3.org/2000/svg">
<g id="Encapsulated Group" clip-path="url(#clip0_153_5578)">
<g id="Group">
<g id="Clip path group">
<mask id="mask0_153_5578" style="mask-type:luminance" maskUnits="userSpaceOnUse" x="0" y="0" width="24" height="24">
<g id="B">
<path id="Vector" d="M23.7209 9.81818H12.2791V14.4545H18.8651C18.2512 17.4 15.6837 19.0909 12.2791 19.0909C8.26047 19.0909 5.02326 15.9273 5.02326 12C5.02326 8.07273 8.26047 4.90909 12.2791 4.90909C14.0093 4.90909 15.5721 5.50909 16.8 6.49091L20.3721 3C18.1953 1.14545 15.4047 0 12.2791 0C5.46977 0 0 5.34545 0 12C0 18.6545 5.46977 24 12.2791 24C18.4186 24 24 19.6364 24 12C24 11.2909 23.8884 10.5273 23.7209 9.81818Z" fill="white"/>
</g>
</mask>
<g mask="url(#mask0_153_5578)">
<path id="Vector_2" d="M-1.11621 19.0909V4.90906L8.37216 12L-1.11621 19.0909Z" fill="#FBBC05"/>
</g>
</g>
<g id="Clip path group_2">
<mask id="mask1_153_5578" style="mask-type:luminance" maskUnits="userSpaceOnUse" x="0" y="0" width="24" height="24">
<g id="B_2">
<path id="Vector_3" d="M23.7209 9.81818H12.2791V14.4545H18.8651C18.2512 17.4 15.6837 19.0909 12.2791 19.0909C8.26047 19.0909 5.02326 15.9273 5.02326 12C5.02326 8.07273 8.26047 4.90909 12.2791 4.90909C14.0093 4.90909 15.5721 5.50909 16.8 6.49091L20.3721 3C18.1953 1.14545 15.4047 0 12.2791 0C5.46977 0 0 5.34545 0 12C0 18.6545 5.46977 24 12.2791 24C18.4186 24 24 19.6364 24 12C24 11.2909 23.8884 10.5273 23.7209 9.81818Z" fill="white"/>
</g>
</mask>
<g mask="url(#mask1_153_5578)">
<path id="Vector_4" d="M-1.11621 4.90906L8.37216 12L12.2791 8.67269L25.6745 6.54542V-1.09094H-1.11621V4.90906Z" fill="#EA4335"/>
</g>
</g>
<g id="Clip path group_3">
<mask id="mask2_153_5578" style="mask-type:luminance" maskUnits="userSpaceOnUse" x="0" y="0" width="24" height="24">
<g id="B_3">
<path id="Vector_5" d="M23.7209 9.81818H12.2791V14.4545H18.8651C18.2512 17.4 15.6837 19.0909 12.2791 19.0909C8.26047 19.0909 5.02326 15.9273 5.02326 12C5.02326 8.07273 8.26047 4.90909 12.2791 4.90909C14.0093 4.90909 15.5721 5.50909 16.8 6.49091L20.3721 3C18.1953 1.14545 15.4047 0 12.2791 0C5.46977 0 0 5.34545 0 12C0 18.6545 5.46977 24 12.2791 24C18.4186 24 24 19.6364 24 12C24 11.2909 23.8884 10.5273 23.7209 9.81818Z" fill="white"/>
</g>
</mask>
<g mask="url(#mask2_153_5578)">
<path id="Vector_6" d="M-1.11621 19.0909L15.628 6.54542L20.0373 7.09088L25.6745 -1.09094V25.0909H-1.11621V19.0909Z" fill="#34A853"/>
</g>
</g>
<g id="Clip path group_4">
<mask id="mask3_153_5578" style="mask-type:luminance" maskUnits="userSpaceOnUse" x="0" y="0" width="24" height="24">
<g id="B_4">
<path id="Vector_7" d="M23.7209 9.81818H12.2791V14.4545H18.8651C18.2512 17.4 15.6837 19.0909 12.2791 19.0909C8.26047 19.0909 5.02326 15.9273 5.02326 12C5.02326 8.07273 8.26047 4.90909 12.2791 4.90909C14.0093 4.90909 15.5721 5.50909 16.8 6.49091L20.3721 3C18.1953 1.14545 15.4047 0 12.2791 0C5.46977 0 0 5.34545 0 12C0 18.6545 5.46977 24 12.2791 24C18.4186 24 24 19.6364 24 12C24 11.2909 23.8884 10.5273 23.7209 9.81818Z" fill="white"/>
</g>
</mask>
<g mask="url(#mask3_153_5578)">
<path id="Vector_8" d="M25.6744 25.0909L8.37208 12L6.13953 10.3636L25.6744 4.90906V25.0909Z" fill="#4285F4"/>
</g>
</g>
</g>
</g>
<defs>
<clipPath id="clip0_153_5578">
<rect width="24" height="24" fill="white"/>
</clipPath>
</defs>
</svg>
