<svg width="48" height="48" viewBox="0 0 48 48" fill="none" xmlns="http://www.w3.org/2000/svg">
<g id="internet-security 1" clip-path="url(#clip0_1323_4582)">
<g id="Group">
<g id="Group_2">
<path id="Vector" d="M9.44189 26.0742C9.52325 28.7723 9.89334 31.3389 10.5024 33.6307C12.6765 32.7217 15.0098 32.2094 17.4156 32.0849V26.0742H9.44189Z" fill="#072AC8"/>
</g>
</g>
<g id="Group_3">
<g id="Group_4">
<path id="Vector_2" d="M10.5127 16.2905C9.8972 18.5929 9.52375 21.1756 9.44189 23.8901H17.4156V17.8314C15.0136 17.7071 12.6837 17.197 10.5127 16.2905Z" fill="#072AC8"/>
</g>
</g>
<g id="Group_5">
<g id="Group_6">
<path id="Vector_3" d="M11.1748 14.1898C13.1348 15.0331 15.2397 15.5217 17.4156 15.6476V6.57446C14.8815 7.227 12.6378 10.1047 11.1748 14.1898Z" fill="#072AC8"/>
</g>
</g>
<g id="Group_7">
<g id="Group_8">
<path id="Vector_4" d="M4.71412 12.6033C1.98849 15.6371 0.253601 19.5628 0 23.8901H7.25887C7.34306 20.7853 7.77419 17.8796 8.49691 15.306C7.14816 14.5604 5.88534 13.6502 4.71412 12.6033Z" fill="#072AC8"/>
</g>
</g>
<g id="Group_9">
<g id="Group_10">
<path id="Vector_5" d="M6.26465 11.065C7.17627 11.8683 8.15219 12.5722 9.18375 13.1741C10.0298 10.8915 11.1223 8.96006 12.3921 7.47583C10.1139 8.27411 8.04087 9.50058 6.26465 11.065Z" fill="#072AC8"/>
</g>
</g>
<g id="Group_11">
<g id="Group_12">
<path id="Vector_6" d="M11.1597 35.7336C12.6223 39.8407 14.873 42.735 17.4156 43.3898V34.2686C15.2339 34.3949 13.1241 34.8863 11.1597 35.7336Z" fill="#072AC8"/>
</g>
</g>
<g id="Group_13">
<g id="Group_14">
<path id="Vector_7" d="M21.9387 8.79957L22.6296 8.59584C22.6496 8.59005 22.6674 8.58385 22.6874 8.57786C21.8665 7.68594 20.8242 6.89111 19.5991 6.57495V15.6662C20.4857 15.6147 21.364 15.4989 22.2287 15.323C21.5884 12.0064 21.8463 9.57419 21.8535 9.51345L21.9387 8.79957Z" fill="#072AC8"/>
</g>
</g>
<g id="Group_15">
<g id="Group_16">
<path id="Vector_8" d="M9.16825 36.7515C8.13242 37.3573 7.15295 38.0662 6.23828 38.8751C8.0206 40.4509 10.1024 41.6861 12.3922 42.4884C11.1149 40.9956 10.0163 39.0514 9.16825 36.7515Z" fill="#072AC8"/>
</g>
</g>
<g id="Group_17">
<g id="Group_18">
<path id="Vector_9" d="M7.25887 26.0742H0C0.25289 30.3889 1.97823 34.3045 4.69015 37.3347C5.86482 36.2814 7.13222 35.3664 8.48615 34.6168C7.77033 32.0532 7.34265 29.1626 7.25887 26.0742Z" fill="#072AC8"/>
</g>
</g>
<g id="Group_19">
<g id="Group_20">
<path id="Vector_10" d="M19.5991 34.2686V43.392C22.1602 42.7448 24.4218 39.8711 25.8813 35.7448C23.9096 34.8908 21.7908 34.3953 19.5991 34.2686Z" fill="#072AC8"/>
</g>
</g>
<g id="Group_21">
<g id="Group_22">
<path id="Vector_11" d="M35.9779 11.2285C34.1268 12.3258 32.0303 13.3361 29.7261 14.242C30.3168 17.0271 31.911 20.5263 35.9779 23.0824C40.0482 20.5252 41.6423 17.0277 42.2331 14.2436C39.9286 13.3383 37.8313 12.3268 35.9779 11.2285Z" fill="#072AC8"/>
</g>
</g>
<g id="Group_23">
<g id="Group_24">
<path id="Vector_12" d="M22.742 17.4451C21.7093 17.6591 20.6589 17.7948 19.5991 17.8501V23.8902H25.8478C24.3081 21.7317 23.3403 19.4956 22.742 17.4451Z" fill="#072AC8"/>
</g>
</g>
<g id="Group_25">
<g id="Group_26">
<path id="Vector_13" d="M47.9848 10.472C41.1294 8.35633 37.4611 5.82327 35.9779 4.60767C34.4946 5.82327 30.8265 8.35633 23.971 10.472C23.8473 13.3335 24.2184 24.0025 35.9779 29.2506C47.7374 24.0026 48.1085 13.3335 47.9848 10.472ZM44.548 13.7104C44.0233 17.1904 42.2062 22.0267 36.5228 25.3025L35.9779 25.6172L35.4319 25.3025C29.7527 22.0278 27.9356 17.1904 27.411 13.7089L27.2798 12.8334L28.1085 12.5237C30.8627 11.4941 33.3175 10.3165 35.4022 9.0235L35.9779 8.66691L36.5537 9.0235C38.6416 10.3181 41.0963 11.4964 43.8495 12.5254L44.6791 12.835L44.548 13.7104Z" fill="#072AC8"/>
</g>
</g>
<g id="Group_27">
<g id="Group_28">
<path id="Vector_14" d="M19.5991 26.0742V32.085C22.0087 32.2096 24.3453 32.7228 26.5217 33.6341C27.1234 31.3474 27.4962 28.7874 27.5759 26.0742H19.5991Z" fill="#072AC8"/>
</g>
</g>
<g id="Group_29">
<g id="Group_30">
<path id="Vector_15" d="M35.5506 31.4468C33.2171 30.4549 31.2811 29.2595 29.6673 27.948C29.4856 30.3292 29.0831 32.5643 28.5073 34.6031C29.8799 35.3607 31.1632 36.2899 32.3518 37.3597C33.8427 35.6916 35.0335 33.7386 35.8516 31.5745L35.5506 31.4468Z" fill="#072AC8"/>
</g>
</g>
<g id="Group_31">
<g id="Group_32">
<path id="Vector_16" d="M27.821 36.7358C26.9548 39.0662 25.8359 41.04 24.5356 42.5434C26.8607 41.7494 28.9824 40.5006 30.7997 38.8963C29.8709 38.0718 28.8752 37.3501 27.821 36.7358Z" fill="#072AC8"/>
</g>
</g>
</g>
<defs>
<clipPath id="clip0_1323_4582">
<rect width="48" height="48" fill="white"/>
</clipPath>
</defs>
</svg>
