<svg width="48" height="48" viewBox="0 0 48 48" fill="none" xmlns="http://www.w3.org/2000/svg">
<g id="fluent:location-28-regular">
<path id="Vector" d="M24.0004 3.85742C28.4333 3.85742 32.6847 5.61839 35.8192 8.75292C38.9537 11.8875 40.7147 16.1388 40.7147 20.5717C40.7147 27.6346 35.7519 35.3317 25.9547 43.7454C25.4099 44.2134 24.7154 44.4704 23.9972 44.4698C23.279 44.4692 22.5849 44.2109 22.041 43.742L21.393 43.1797C12.0296 34.9854 7.28613 27.4768 7.28613 20.5717C7.28613 16.1388 9.0471 11.8875 12.1816 8.75292C15.3162 5.61839 19.5675 3.85742 24.0004 3.85742ZM24.0004 6.42885C20.2495 6.42885 16.6522 7.9189 13.9999 10.5712C11.3476 13.2235 9.85756 16.8208 9.85756 20.5717C9.85756 26.5751 14.2256 33.4923 23.0816 41.2408L23.721 41.7946C23.7987 41.8614 23.8979 41.8982 24.0004 41.8982C24.103 41.8982 24.2021 41.8614 24.2798 41.7946C33.5644 33.8197 38.1433 26.7174 38.1433 20.5717C38.1433 18.7144 37.7775 16.8754 37.0667 15.1595C36.356 13.4436 35.3142 11.8845 34.0009 10.5712C32.6876 9.25791 31.1285 8.21616 29.4127 7.50541C27.6968 6.79467 25.8577 6.42885 24.0004 6.42885ZM24.0004 14.1431C25.7054 14.1431 27.3405 14.8204 28.5461 16.026C29.7517 17.2316 30.429 18.8667 30.429 20.5717C30.429 22.2767 29.7517 23.9118 28.5461 25.1174C27.3405 26.323 25.7054 27.0003 24.0004 27.0003C22.2955 27.0003 20.6603 26.323 19.4547 25.1174C18.2491 23.9118 17.5718 22.2767 17.5718 20.5717C17.5718 18.8667 18.2491 17.2316 19.4547 16.026C20.6603 14.8204 22.2955 14.1431 24.0004 14.1431ZM24.0004 16.7146C22.9774 16.7146 21.9964 17.1209 21.273 17.8443C20.5497 18.5676 20.1433 19.5487 20.1433 20.5717C20.1433 21.5947 20.5497 22.5758 21.273 23.2991C21.9964 24.0225 22.9774 24.4288 24.0004 24.4288C25.0234 24.4288 26.0045 24.0225 26.7278 23.2991C27.4512 22.5758 27.8576 21.5947 27.8576 20.5717C27.8576 19.5487 27.4512 18.5676 26.7278 17.8443C26.0045 17.1209 25.0234 16.7146 24.0004 16.7146Z" fill="#626262"/>
</g>
</svg>
