<svg width="5" height="24" viewBox="0 0 5 24" fill="none" xmlns="http://www.w3.org/2000/svg">
<path id="Vector" d="M2.5 5.41935C2.1717 5.41935 1.84661 5.34927 1.54329 5.21309C1.23998 5.07692 0.964379 4.87733 0.732233 4.62571C0.500086 4.37409 0.315938 4.07538 0.190302 3.74663C0.0646649 3.41787 0 3.06552 0 2.70968C0 2.35384 0.0646649 2.00148 0.190302 1.67273C0.315938 1.34398 0.500086 1.04526 0.732233 0.793646C0.964379 0.542029 1.23998 0.342436 1.54329 0.206262C1.84661 0.0700876 2.1717 -7.49876e-09 2.5 0C3.16304 1.51444e-08 3.79893 0.285483 4.26777 0.793646C4.73661 1.30181 5 1.99103 5 2.70968C5 3.42833 4.73661 4.11755 4.26777 4.62571C3.79893 5.13387 3.16304 5.41935 2.5 5.41935ZM2.5 14.7097C1.83696 14.7097 1.20107 14.4242 0.732233 13.916C0.263392 13.4079 0 12.7187 0 12C0 11.2813 0.263392 10.5921 0.732233 10.084C1.20107 9.5758 1.83696 9.29032 2.5 9.29032C3.16304 9.29032 3.79893 9.5758 4.26777 10.084C4.73661 10.5921 5 11.2813 5 12C5 12.7187 4.73661 13.4079 4.26777 13.916C3.79893 14.4242 3.16304 14.7097 2.5 14.7097ZM0 21.2903C0 22.009 0.263392 22.6982 0.732233 23.2064C1.20107 23.7145 1.83696 24 2.5 24C3.16304 24 3.79893 23.7145 4.26777 23.2064C4.73661 22.6982 5 22.009 5 21.2903C5 20.5717 4.73661 19.8825 4.26777 19.3743C3.79893 18.8661 3.16304 18.5806 2.5 18.5806C1.83696 18.5806 1.20107 18.8661 0.732233 19.3743C0.263392 19.8825 0 20.5717 0 21.2903Z" fill="#536471"/>
</svg>
