<svg width="25" height="26" viewBox="0 0 25 26" fill="none" xmlns="http://www.w3.org/2000/svg">
<g id="Apple logo">
<path id="Vector" d="M20.0736 13.6943C20.0617 11.571 21.0555 9.9684 23.0672 8.78816C21.9416 7.23186 20.2413 6.37561 17.9961 6.20783C15.8707 6.04584 13.5477 7.40543 12.6976 7.40543C11.7995 7.40543 9.73997 6.26569 8.12346 6.26569C4.78269 6.31776 1.23236 8.84023 1.23236 13.972C1.23236 15.4878 1.51974 17.0537 2.0945 18.6698C2.86084 20.7931 5.62686 26 8.51262 25.9132C10.0214 25.8785 11.0871 24.8776 13.0508 24.8776C14.9547 24.8776 15.9426 25.9132 17.6249 25.9132C20.5346 25.8727 23.0372 21.1402 23.7676 19.0111C19.8641 17.235 20.0736 13.8042 20.0736 13.6943ZM16.685 4.19448C18.3194 2.31998 18.1697 0.613262 18.1218 0C16.679 0.0809969 15.0086 0.948821 14.0566 2.01914C13.0089 3.16466 12.3922 4.58211 12.5239 6.17891C14.0866 6.29461 15.5115 5.51936 16.685 4.19448Z" fill="#090F24"/>
</g>
</svg>
