<svg width="48" height="48" viewBox="0 0 48 48" fill="none" xmlns="http://www.w3.org/2000/svg">
<g id="datastore 1" clip-path="url(#clip0_2920_5017)">
<path id="Vector" d="M34.5 36C35.3284 36 36 35.3284 36 34.5C36 33.6716 35.3284 33 34.5 33C33.6716 33 33 33.6716 33 34.5C33 35.3284 33.6716 36 34.5 36Z" fill="#072AC8"/>
<path id="Vector_2" d="M30 33H12V36H30V33Z" fill="#072AC8"/>
<path id="Vector_3" d="M34.5 15C35.3284 15 36 14.3284 36 13.5C36 12.6716 35.3284 12 34.5 12C33.6716 12 33 12.6716 33 13.5C33 14.3284 33.6716 15 34.5 15Z" fill="#072AC8"/>
<path id="Vector_4" d="M30 12H12V15H30V12Z" fill="#072AC8"/>
<path id="Vector_5" d="M39 21C39.7957 21 40.5587 20.6839 41.1213 20.1213C41.6839 19.5587 42 18.7956 42 18V9C42 8.20435 41.6839 7.44129 41.1213 6.87868C40.5587 6.31607 39.7957 6 39 6H9C8.20435 6 7.44129 6.31607 6.87868 6.87868C6.31607 7.44129 6 8.20435 6 9V18C6 18.7956 6.31607 19.5587 6.87868 20.1213C7.44129 20.6839 8.20435 21 9 21H12V27H9C8.20435 27 7.44129 27.3161 6.87868 27.8787C6.31607 28.4413 6 29.2044 6 30V39C6 39.7957 6.31607 40.5587 6.87868 41.1213C7.44129 41.6839 8.20435 42 9 42H39C39.7957 42 40.5587 41.6839 41.1213 41.1213C41.6839 40.5587 42 39.7957 42 39V30C42 29.2044 41.6839 28.4413 41.1213 27.8787C40.5587 27.3161 39.7957 27 39 27H36V21H39ZM9 9H39V18H9V9ZM39 39H9V30H39V39ZM33 27H15V21H33V27Z" fill="#072AC8"/>
</g>
<defs>
<clipPath id="clip0_2920_5017">
<rect width="48" height="48" fill="white"/>
</clipPath>
</defs>
</svg>
