<svg width="20" height="20" viewBox="0 0 20 20" fill="none" xmlns="http://www.w3.org/2000/svg">
<g id="comment">
<path id="Vector" d="M4.37533 15C3.65703 15 2.96816 14.7147 2.46024 14.2067C1.95233 13.6988 1.66699 13.01 1.66699 12.2917V5.20833C1.66699 4.49004 1.95233 3.80116 2.46024 3.29325C2.96816 2.78534 3.65703 2.5 4.37533 2.5H15.6253C15.981 2.5 16.3332 2.57005 16.6618 2.70616C16.9903 2.84227 17.2889 3.04176 17.5404 3.29325C17.7919 3.54474 17.9914 3.84331 18.1275 4.1719C18.2636 4.50049 18.3337 4.85267 18.3337 5.20833V12.2917C18.3337 12.6473 18.2636 12.9995 18.1275 13.3281C17.9914 13.6567 17.7919 13.9553 17.5404 14.2067C17.2889 14.4582 16.9903 14.6577 16.6618 14.7938C16.3332 14.9299 15.981 15 15.6253 15H10.8437L6.66699 18.125C6.51223 18.2408 6.32829 18.3113 6.13575 18.3286C5.94321 18.3458 5.74967 18.3091 5.57679 18.2226C5.40391 18.1362 5.2585 18.0033 5.15684 17.8389C5.05518 17.6744 5.00127 17.485 5.00116 17.2917V15H4.37533ZM10.4287 13.75H15.6253C16.0121 13.75 16.383 13.5964 16.6565 13.3229C16.93 13.0494 17.0837 12.6784 17.0837 12.2917V5.20833C17.0837 4.82156 16.93 4.45063 16.6565 4.17714C16.383 3.90365 16.0121 3.75 15.6253 3.75H4.37533C3.98855 3.75 3.61762 3.90365 3.34413 4.17714C3.07064 4.45063 2.91699 4.82156 2.91699 5.20833V12.2917C2.91699 13.0967 3.57033 13.75 4.37533 13.75H6.24949V16.875L10.4287 13.75Z" fill="#848484"/>
</g>
</svg>
