<svg width="40" height="41" viewBox="0 0 40 41" fill="none" xmlns="http://www.w3.org/2000/svg">
<g clip-path="url(#clip0_942_6365)">
<rect y="17.1667" width="23.3333" height="23.3333" fill="#7595FD"/>
<path d="M35.9344 7.13281L15.5828 3.53906C14.93 3.42417 14.2582 3.57329 13.7152 3.95362C13.1723 4.33395 12.8026 4.91435 12.6875 5.56719L8.03908 31.9734C7.98223 32.2969 7.98968 32.6285 8.061 32.9491C8.13233 33.2697 8.26613 33.5731 8.45477 33.842C8.64341 34.1109 8.88318 34.3399 9.16039 34.5161C9.43759 34.6923 9.7468 34.8121 10.0703 34.8688L30.4219 38.4625C30.7455 38.5196 31.0772 38.5123 31.398 38.4411C31.7188 38.3699 32.0224 38.2361 32.2914 38.0474C32.5605 37.8588 32.7897 37.6189 32.966 37.3416C33.1423 37.0643 33.2621 36.7549 33.3188 36.4313L37.9672 10.025C38.0811 9.37192 37.9309 8.70034 37.5497 8.15797C37.1685 7.6156 36.5875 7.24685 35.9344 7.13281ZM24.1719 21.5563C24.1209 21.8454 23.9697 22.1074 23.7448 22.2962C23.52 22.4851 23.2358 22.5888 22.9422 22.5891C22.8689 22.589 22.7957 22.5828 22.7235 22.5703L16.2391 21.425C15.9309 21.3492 15.6631 21.159 15.49 20.8931C15.3169 20.6271 15.2514 20.3052 15.3069 19.9927C15.3623 19.6803 15.5346 19.4006 15.7886 19.2104C16.0427 19.0203 16.3596 18.9339 16.675 18.9688L23.1563 20.1078C23.3181 20.1361 23.4728 20.1961 23.6115 20.2842C23.7501 20.3723 23.87 20.4869 23.9644 20.6215C24.0587 20.756 24.1256 20.9078 24.1612 21.0682C24.1968 21.2286 24.2004 21.3944 24.1719 21.5563ZM31.5156 17.7781C31.4647 18.067 31.3137 18.3288 31.0892 18.5176C30.8647 18.7064 30.5809 18.8103 30.2875 18.8109C30.2136 18.8111 30.1398 18.8043 30.0672 18.7906L17.0985 16.5016C16.7719 16.4438 16.4817 16.2586 16.2917 15.9868C16.1016 15.715 16.0274 15.3789 16.0852 15.0523C16.143 14.7258 16.3281 14.4356 16.5999 14.2456C16.8717 14.0555 17.2078 13.9813 17.5344 14.0391L30.5031 16.3297C30.6651 16.3578 30.82 16.4176 30.9588 16.5057C31.0977 16.5937 31.2178 16.7083 31.3122 16.8429C31.4067 16.9774 31.4737 17.1293 31.5095 17.2898C31.5452 17.4503 31.5489 17.6162 31.5203 17.7781H31.5156ZM32.3828 12.8531C32.3318 13.1423 32.1806 13.4043 31.9558 13.5931C31.7309 13.782 31.4468 13.8856 31.1531 13.8859C31.0798 13.8858 31.0067 13.8796 30.9344 13.8672L17.9656 11.5766C17.8003 11.5522 17.6414 11.495 17.4986 11.4082C17.3557 11.3214 17.2317 11.2068 17.1339 11.0712C17.0361 10.9357 16.9665 10.7819 16.9292 10.6189C16.8919 10.456 16.8876 10.2872 16.9167 10.1226C16.9457 9.95799 17.0075 9.80088 17.0984 9.66056C17.1892 9.52024 17.3073 9.39957 17.4456 9.30568C17.5839 9.21179 17.7396 9.1466 17.9035 9.11395C18.0675 9.08131 18.2363 9.08188 18.4 9.11563L31.3688 11.4047C31.5309 11.4326 31.6859 11.4923 31.8249 11.5803C31.9639 11.6683 32.0842 11.7828 32.1789 11.9174C32.2735 12.052 32.3407 12.2039 32.3765 12.3645C32.4123 12.525 32.416 12.6911 32.3875 12.8531H32.3828Z" fill="white"/>
</g>
<defs>
<clipPath id="clip0_942_6365">
<rect width="40" height="40" fill="white" transform="translate(0 0.5)"/>
</clipPath>
</defs>
</svg>
