<svg width="48" height="48" viewBox="0 0 48 48" fill="none" xmlns="http://www.w3.org/2000/svg">
<g id="design-ideas 1">
<path id="Vector" d="M11.1498 4.14806C11.6695 4.39784 12 4.9234 12 5.50002C12 7.1597 12.6242 8.11526 13.4063 9.27896L13.4631 9.3635C14.1282 10.3516 15 11.6468 15 13.5C15 15.391 14.0456 17.0592 12.5923 18.049C12.9747 18.3696 13.3134 18.765 13.6045 19.2361C14.556 20.776 15 23.129 15 26.5098C15 29.934 14.5401 34.046 13.7908 37.3288C13.4183 38.9612 12.9569 40.467 12.4054 41.5988C12.132 42.16 11.799 42.7082 11.3843 43.137C10.9743 43.5608 10.3407 44.0098 9.5 44.0098C8.6593 44.0098 8.02572 43.5608 7.61566 43.137C7.20104 42.7082 6.86804 42.16 6.59456 41.5988C6.04314 40.467 5.58172 38.9612 5.20918 37.3288C4.45994 34.046 4 29.934 4 26.5098C4 23.129 4.44398 20.776 5.3955 19.2361C5.68656 18.765 6.02534 18.3696 6.4077 18.049C4.95436 17.0592 4 15.391 4 13.5C4 12.7636 4.00068 11.4978 4.76682 9.86336C5.51658 8.26384 6.94132 6.42602 9.56296 4.32872C10.0132 3.9685 10.6301 3.89828 11.1498 4.14806ZM7 13.4975V13.5C7 14.8807 8.11928 16 9.5 16C10.8807 16 12 14.8807 12 13.5C12 12.6219 11.6304 12.0149 10.9163 10.9523L10.8918 10.9159C10.4341 10.2349 9.89346 9.43064 9.50762 8.39512C8.42106 9.49998 7.821 10.416 7.48318 11.1367C7 12.1675 7 12.901 7 13.4975ZM7.94766 20.813C7.45144 21.616 7 23.263 7 26.5098C7 29.713 7.43548 33.601 8.13396 36.6612C8.48528 38.2006 8.88578 39.452 9.29148 40.2848C9.36616 40.438 9.43612 40.5668 9.5 40.6738C9.56388 40.5668 9.63384 40.438 9.70852 40.2848C10.1142 39.452 10.5147 38.2006 10.866 36.6612C11.5645 33.601 12 29.713 12 26.5098C12 23.263 11.5486 21.616 11.0523 20.813C10.8265 20.4474 10.6024 20.2744 10.4021 20.1772C10.1864 20.0726 9.90136 20.0098 9.5 20.0098C9.09864 20.0098 8.81356 20.0726 8.5979 20.1772C8.39762 20.2744 8.17346 20.4474 7.94766 20.813Z" fill="#072AC8"/>
<path id="Vector_2" d="M19.9999 29.834C18.9232 29.6534 17.8952 29.3294 16.9361 28.8824C16.9781 28.0698 16.9999 27.274 16.9999 26.5098C16.9999 26.1582 16.9954 25.8132 16.986 25.4752C17.8882 26.0814 18.9062 26.5288 19.9999 26.777V21C19.9999 19.3431 21.343 18 22.9998 18H30.9998C30.9998 13.0294 26.9704 9 21.9998 9C19.9431 9 18.0474 9.68996 16.5317 10.851C16.1327 9.7462 15.5623 8.8999 15.1655 8.31108L15.085 8.19144C17.0395 6.81098 19.425 6 21.9998 6C28.6272 6 33.9998 11.3726 33.9998 18H40.9998C42.6568 18 43.9998 19.3431 43.9998 21V39C43.9998 40.6568 42.6568 42 40.9998 42H22.9998C21.343 42 19.9999 40.6568 19.9999 39V29.834ZM22.9998 29.959V39H40.9998V21H33.6218C32.37 25.864 28.1452 29.5344 22.9998 29.959ZM30.4878 21H22.9998V26.945C26.478 26.5606 29.3588 24.194 30.4878 21Z" fill="#072AC8"/>
</g>
</svg>
