<svg width="48" height="48" viewBox="0 0 48 48" fill="none" xmlns="http://www.w3.org/2000/svg">
<g id="level-point-satisfaction 1" clip-path="url(#clip0_942_7564)">
<g id="Group">
<path id="Vector" d="M45 26.25C44.7038 26.25 44.4225 26.3108 44.163 26.415C43.9042 25.4588 43.0373 24.75 42 24.75C41.7037 24.75 41.4225 24.8108 41.163 24.915C40.9042 23.9588 40.0372 23.25 39 23.25C38.736 23.25 38.4855 23.304 38.25 23.388V22.2308C42.6308 21.2017 45.75 17.316 45.75 12.75C45.75 10.551 45.0098 8.52675 43.7767 6.894L45.546 5.01375L44.4533 3.9855L42.783 5.76075C41.0265 4.05525 38.6355 3 36 3C30.624 3 26.25 7.374 26.25 12.75C26.25 17.316 29.3692 21.2017 33.75 22.2315V35.6842C33.609 35.5395 33.5085 35.3527 33.4695 35.1405L32.4817 29.7097C32.2755 28.5742 31.2892 27.75 30.1357 27.75C28.8202 27.75 27.75 28.8202 27.75 30.135V30.6143C27.75 30.7448 27.7612 30.876 27.7822 31.0065L29.1322 39.102C29.238 39.7327 29.5035 40.3305 29.9017 40.8278L31.7565 43.146C32.0752 43.545 32.25 44.0438 32.25 44.5522V47.25H44.25V44.5522C44.25 44.0438 44.4248 43.5443 44.7435 43.146L46.428 41.0393C46.9575 40.377 47.25 39.5452 47.25 38.6978V28.5C47.25 27.2595 46.2405 26.25 45 26.25ZM27.75 12.75C27.75 8.20125 31.4513 4.5 36 4.5C38.2387 4.5 40.269 5.39925 41.7562 6.85125L32.9843 16.173L31.281 14.4697L30.2205 15.5303L33.0172 18.327L42.735 8.001C43.686 9.34575 44.25 10.9815 44.25 12.75C44.25 16.4925 41.7735 19.6965 38.25 20.685V19.5C38.25 18.2595 37.2405 17.25 36 17.25C34.7595 17.25 33.75 18.2595 33.75 19.5V20.685C30.2265 19.6965 27.75 16.4925 27.75 12.75ZM45.75 38.6978C45.75 39.2062 45.5752 39.7057 45.2565 40.104L43.572 42.2107C43.0425 42.873 42.75 43.7048 42.75 44.5522V45.75H33.75V44.5522C33.75 43.7048 33.4575 42.8722 32.928 42.2093L31.0725 39.891C30.834 39.5925 30.6742 39.2347 30.6112 38.8552L29.2612 30.7612C29.2537 30.7132 29.25 30.6637 29.25 30.6143V30.135C29.25 29.6467 29.6467 29.25 30.1357 29.25C30.5632 29.25 30.93 29.556 31.0065 29.9775L31.9935 35.4082C32.214 36.6203 33.2677 37.5 34.5 37.5H35.25V19.5C35.25 19.0868 35.586 18.75 36 18.75C36.414 18.75 36.75 19.0868 36.75 19.5V25.5V30V31.5H38.25V30V25.5C38.25 25.0868 38.586 24.75 39 24.75C39.414 24.75 39.75 25.0868 39.75 25.5V27V31.5H41.25V27C41.25 26.5868 41.586 26.25 42 26.25C42.414 26.25 42.75 26.5868 42.75 27V28.5V31.5H44.25V28.5C44.25 28.0868 44.586 27.75 45 27.75C45.414 27.75 45.75 28.0868 45.75 28.5V38.6978Z" fill="#626262"/>
<path id="Vector_2" d="M19.5 0.75H6C3.10575 0.75 0.75 3.105 0.75 6V42C0.75 44.895 3.10575 47.25 6 47.25H19.5C22.3943 47.25 24.75 44.895 24.75 42V6C24.75 3.105 22.3943 0.75 19.5 0.75ZM23.25 42C23.25 44.0677 21.5677 45.75 19.5 45.75H6C3.93225 45.75 2.25 44.0677 2.25 42V6C2.25 3.93225 3.93225 2.25 6 2.25H19.5C21.5677 2.25 23.25 3.93225 23.25 6V42Z" fill="#626262"/>
<path id="Vector_3" d="M12.7498 17.0742L10.4008 21.7662L5.12158 22.5222L8.94283 26.1935L8.04358 31.3617L12.7498 28.9227L17.4561 31.3617L16.5568 26.1935L20.3781 22.5222L15.0988 21.7662L12.7498 17.0742ZM14.9428 25.6647L15.4596 28.6377L12.7498 27.233L10.0401 28.6377L10.5568 25.6647L8.37808 23.5707L11.3916 23.1387L12.7498 20.4252L14.1088 23.1395L17.1223 23.5715L14.9428 25.6647Z" fill="#626262"/>
<path id="Vector_4" d="M12.7501 31.3379L10.6351 35.5221L5.86133 36.1994L9.31658 39.4889L8.50583 44.1066L12.7501 41.9279L16.9943 44.1066L16.1836 39.4889L19.6388 36.1994L14.8651 35.5221L12.7501 31.3379ZM14.5666 38.9564L14.9948 41.3939L12.7501 40.2419L10.5053 41.3946L10.9336 38.9571L9.13883 37.2501L11.6206 36.8984L12.7501 34.6634L13.8796 36.8976L16.3613 37.2494L14.5666 38.9564Z" fill="#626262"/>
<path id="Vector_5" d="M8.50583 16.3566L12.7501 14.1779L16.9943 16.3566L16.1836 11.7389L19.6388 8.44939L14.8651 7.77214L12.7501 3.58789L10.6351 7.77214L5.86133 8.44939L9.31658 11.7389L8.50583 16.3566ZM9.13958 9.50014L11.6213 9.14839L12.7501 6.91339L13.8796 9.14764L16.3613 9.49939L14.5666 11.2064L14.9948 13.6439L12.7501 12.4919L10.5053 13.6446L10.9336 11.2071L9.13958 9.50014Z" fill="#626262"/>
</g>
</g>
<defs>
<clipPath id="clip0_942_7564">
<rect width="48" height="48" fill="white"/>
</clipPath>
</defs>
</svg>
