<svg width="60" height="60" viewBox="0 0 60 60" fill="none" xmlns="http://www.w3.org/2000/svg">
<g id="2">
<circle id="Ellipse" cx="30" cy="30" r="30" fill="#E6EAFA" fill-opacity="0.2"/>
<path id="Vector" fill-rule="evenodd" clip-rule="evenodd" d="M44 30.0846C44 22.3066 37.7313 16 30 16C22.2688 16 16 22.3066 16 30.0846C16 37.1143 21.1188 42.9411 27.8125 43.9987V34.1571H24.2569V30.0846H27.8125V26.9816C27.8125 23.4522 29.9031 21.5012 33.1006 21.5012C34.6325 21.5012 36.235 21.7766 36.235 21.7766V25.243H34.4688C32.7306 25.243 32.1869 26.3283 32.1869 27.4437V30.0846H36.0694L35.4494 34.1571H32.1875V44C38.8813 42.943 44 37.1162 44 30.0846Z" fill="#072AC8"/>
</g>
</svg>
