<svg width="24" height="25" viewBox="0 0 24 25" fill="none" xmlns="http://www.w3.org/2000/svg">
<g id="fluent:location-28-regular">
<path id="Vector" d="M12.0002 2.11279C14.2167 2.11279 16.3423 2.99328 17.9096 4.56054C19.4769 6.12781 20.3574 8.25348 20.3574 10.4699C20.3574 14.0014 17.8759 17.8499 12.9774 22.0568C12.705 22.2908 12.3577 22.4193 11.9986 22.419C11.6395 22.4187 11.2925 22.2895 11.0205 22.0551L10.6965 21.7739C6.01478 17.6768 3.64307 13.9225 3.64307 10.4699C3.64307 8.25348 4.52355 6.12781 6.09082 4.56054C7.65809 2.99328 9.78376 2.11279 12.0002 2.11279ZM12.0002 3.39851C10.1248 3.39851 8.32611 4.14353 6.99995 5.46968C5.6738 6.79583 4.92878 8.59448 4.92878 10.4699C4.92878 13.4716 7.11278 16.9302 11.5408 20.8045L11.8605 21.0814C11.8994 21.1148 11.9489 21.1332 12.0002 21.1332C12.0515 21.1332 12.1011 21.1148 12.1399 21.0814C16.7822 17.0939 19.0716 13.5428 19.0716 10.4699C19.0716 9.5413 18.8887 8.62176 18.5334 7.76382C18.178 6.90587 17.6571 6.12632 17.0005 5.46968C16.3438 4.81304 15.5643 4.29216 14.7063 3.93679C13.8484 3.58142 12.9288 3.39851 12.0002 3.39851ZM12.0002 7.25565C12.8527 7.25565 13.6703 7.5943 14.2731 8.19709C14.8758 8.79989 15.2145 9.61745 15.2145 10.4699C15.2145 11.3224 14.8758 12.14 14.2731 12.7428C13.6703 13.3456 12.8527 13.6842 12.0002 13.6842C11.1477 13.6842 10.3302 13.3456 9.72737 12.7428C9.12457 12.14 8.78592 11.3224 8.78592 10.4699C8.78592 9.61745 9.12457 8.79989 9.72737 8.19709C10.3302 7.5943 11.1477 7.25565 12.0002 7.25565ZM12.0002 8.54136C11.4887 8.54136 10.9982 8.74455 10.6365 9.10623C10.2748 9.46791 10.0716 9.95845 10.0716 10.4699C10.0716 10.9814 10.2748 11.472 10.6365 11.8336C10.9982 12.1953 11.4887 12.3985 12.0002 12.3985C12.5117 12.3985 13.0022 12.1953 13.3639 11.8336C13.7256 11.472 13.9288 10.9814 13.9288 10.4699C13.9288 9.95845 13.7256 9.46791 13.3639 9.10623C13.0022 8.74455 12.5117 8.54136 12.0002 8.54136Z" fill="#626262"/>
</g>
</svg>
