<svg width="133" height="136" viewBox="0 0 133 136" fill="none" xmlns="http://www.w3.org/2000/svg">
<ellipse cx="66.375" cy="65" rx="65.5" ry="65" fill="#CACACA"/>
<ellipse cx="115" cy="118.948" rx="17.125" ry="16.9485" fill="#F5F6FF"/>
<g clip-path="url(#clip0_153_6641)">
<path d="M109.366 122.156L118.755 112.864L117.446 111.569L108.057 120.86V122.156H109.366ZM110.134 123.988H106.206V120.101L116.791 109.625C116.965 109.453 117.2 109.356 117.446 109.356C117.691 109.356 117.926 109.453 118.1 109.625L120.719 112.216C120.892 112.388 120.99 112.621 120.99 112.864C120.99 113.107 120.892 113.34 120.719 113.512L110.134 123.988ZM106.206 125.82H122.868V127.652H106.206V125.82Z" fill="#3251FF"/>
</g>
<path fill-rule="evenodd" clip-rule="evenodd" d="M55.875 52.5C55.875 49.8478 56.9286 47.3043 58.8039 45.4289C60.6793 43.5536 63.2228 42.5 65.875 42.5C68.5272 42.5 71.0707 43.5536 72.9461 45.4289C74.8214 47.3043 75.875 49.8478 75.875 52.5C75.875 55.1522 74.8214 57.6957 72.9461 59.5711C71.0707 61.4464 68.5272 62.5 65.875 62.5C63.2228 62.5 60.6793 61.4464 58.8039 59.5711C56.9286 57.6957 55.875 55.1522 55.875 52.5ZM55.875 67.5C52.5598 67.5 49.3804 68.817 47.0362 71.1612C44.692 73.5054 43.375 76.6848 43.375 80C43.375 81.9891 44.1652 83.8968 45.5717 85.3033C46.9782 86.7098 48.8859 87.5 50.875 87.5H80.875C82.8641 87.5 84.7718 86.7098 86.1783 85.3033C87.5848 83.8968 88.375 81.9891 88.375 80C88.375 76.6848 87.058 73.5054 84.7138 71.1612C82.3696 68.817 79.1902 67.5 75.875 67.5H55.875Z" fill="#626262"/>
<defs>
<clipPath id="clip0_153_6641">
<rect width="22.2162" height="21.9872" fill="white" transform="translate(103.429 107.497)"/>
</clipPath>
</defs>
</svg>
