<svg width="43" height="42" viewBox="0 0 43 42" fill="none" xmlns="http://www.w3.org/2000/svg">
<rect x="0.970703" width="42" height="42" rx="3.5" fill="#072AC8" fill-opacity="0.06"/>
<path d="M14.4739 9.41968C14.7771 9.56539 14.9699 9.87196 14.9699 10.2083C14.9699 11.1765 15.334 11.7339 15.7902 12.4127L15.8234 12.462C16.2113 13.0384 16.7199 13.7939 16.7199 14.875C16.7199 15.9781 16.1632 16.9512 15.3154 17.5286C15.5384 17.7156 15.7361 17.9462 15.9058 18.221C16.4609 19.1193 16.7199 20.4919 16.7199 22.464C16.7199 24.4615 16.4516 26.8601 16.0145 28.7751C15.7972 29.7273 15.5281 30.6057 15.2064 31.2659C15.0469 31.5933 14.8526 31.9131 14.6108 32.1632C14.3716 32.4104 14.002 32.6724 13.5116 32.6724C13.0211 32.6724 12.6516 32.4104 12.4124 32.1632C12.1705 31.9131 11.9762 31.5933 11.8167 31.2659C11.4951 30.6057 11.2259 29.7273 11.0086 28.7751C10.5715 26.8601 10.3032 24.4615 10.3032 22.464C10.3032 20.4919 10.5622 19.1193 11.1173 18.221C11.287 17.9462 11.4847 17.7156 11.7077 17.5286C10.8599 16.9512 10.3032 15.9781 10.3032 14.875C10.3032 14.4454 10.3036 13.707 10.7505 12.7536C11.1879 11.8206 12.019 10.7485 13.5483 9.52507C13.8109 9.31494 14.1708 9.27398 14.4739 9.41968ZM12.0532 14.8735V14.875C12.0532 15.6804 12.7061 16.3333 13.5116 16.3333C14.317 16.3333 14.9699 15.6804 14.9699 14.875C14.9699 14.3628 14.7543 14.0086 14.3377 13.3888L14.3235 13.3676C14.0564 12.9704 13.7411 12.5012 13.516 11.8971C12.8822 12.5416 12.5321 13.076 12.3351 13.4964C12.0532 14.0977 12.0532 14.5256 12.0532 14.8735ZM12.606 19.1409C12.3166 19.6093 12.0532 20.5701 12.0532 22.464C12.0532 24.3326 12.3073 26.6006 12.7147 28.3857C12.9196 29.2837 13.1533 30.0136 13.3899 30.4994C13.4335 30.5888 13.4743 30.6639 13.5116 30.7264C13.5488 30.6639 13.5896 30.5888 13.6332 30.4994C13.8699 30.0136 14.1035 29.2837 14.3084 28.3857C14.7159 26.6006 14.9699 24.3326 14.9699 22.464C14.9699 20.5701 14.7065 19.6093 14.4171 19.1409C14.2854 18.9276 14.1546 18.8267 14.0378 18.77C13.912 18.709 13.7457 18.6724 13.5116 18.6724C13.2774 18.6724 13.1111 18.709 12.9853 18.77C12.8685 18.8267 12.7377 18.9276 12.606 19.1409Z" fill="#072AC8"/>
<path d="M19.6366 24.4031C19.0085 24.2978 18.4088 24.1088 17.8494 23.848C17.8739 23.374 17.8866 22.9098 17.8866 22.464C17.8866 22.2589 17.8839 22.0576 17.8784 21.8605C18.4047 22.2141 18.9986 22.4751 19.6366 22.6199V19.2499C19.6366 18.2834 20.4201 17.4999 21.3865 17.4999H26.0532C26.0532 14.6004 23.7027 12.2499 20.8032 12.2499C19.6034 12.2499 18.4976 12.6524 17.6135 13.3297C17.3807 12.6852 17.048 12.1915 16.8165 11.8481L16.7695 11.7783C17.9097 10.973 19.3012 10.4999 20.8032 10.4999C24.6692 10.4999 27.8032 13.6339 27.8032 17.4999H31.8865C32.8531 17.4999 33.6365 18.2834 33.6365 19.2499V29.7499C33.6365 30.7164 32.8531 31.4999 31.8865 31.4999H21.3865C20.4201 31.4999 19.6366 30.7164 19.6366 29.7499V24.4031ZM21.3865 24.476V29.7499H31.8865V19.2499H27.5827C26.8525 22.0873 24.388 24.2283 21.3865 24.476ZM25.7545 19.2499H21.3865V22.7179C23.4155 22.4936 25.0959 21.1131 25.7545 19.2499Z" fill="#072AC8"/>
</svg>
