<svg width="40" height="41" viewBox="0 0 40 41" fill="none" xmlns="http://www.w3.org/2000/svg">
<g clip-path="url(#clip0_942_6345)">
<rect y="17.1667" width="23.3333" height="23.3333" fill="#7595FD"/>
<path d="M18.3333 10.5001H23.3333L28.8166 5.00008C28.9716 4.84386 29.1559 4.71987 29.359 4.63526C29.5621 4.55064 29.7799 4.50708 30 4.50708C30.22 4.50708 30.4378 4.55064 30.6409 4.63526C30.844 4.71987 31.0284 4.84386 31.1833 5.00008L35.4833 9.31674C35.7937 9.62901 35.968 10.0514 35.968 10.4917C35.968 10.9321 35.7937 11.3545 35.4833 11.6667L31.6666 15.5001H18.3333V18.8334C18.3333 19.2754 18.1577 19.6994 17.8451 20.0119C17.5326 20.3245 17.1087 20.5001 16.6666 20.5001C16.2246 20.5001 15.8007 20.3245 15.4881 20.0119C15.1756 19.6994 15 19.2754 15 18.8334V13.8334C15 12.9494 15.3512 12.1015 15.9763 11.4764C16.6014 10.8513 17.4492 10.5001 18.3333 10.5001ZM8.3333 18.8334V25.5001L4.51664 29.3167C4.20622 29.629 4.03198 30.0514 4.03198 30.4917C4.03198 30.9321 4.20622 31.3545 4.51664 31.6667L8.81664 35.9834C8.97157 36.1396 9.15591 36.2636 9.35901 36.3482C9.56211 36.4328 9.77995 36.4764 9.99997 36.4764C10.22 36.4764 10.4378 36.4328 10.6409 36.3482C10.844 36.2636 11.0284 36.1396 11.1833 35.9834L18.3333 28.8334H25C25.442 28.8334 25.8659 28.6578 26.1785 28.3453C26.491 28.0327 26.6666 27.6088 26.6666 27.1667V25.5001H28.3333C28.7753 25.5001 29.1993 25.3245 29.5118 25.0119C29.8244 24.6994 30 24.2754 30 23.8334V22.1667H31.6666C32.1087 22.1667 32.5326 21.9911 32.8451 21.6786C33.1577 21.366 33.3333 20.9421 33.3333 20.5001V18.8334H21.6666V20.5001C21.6666 21.3841 21.3154 22.232 20.6903 22.8571C20.0652 23.4822 19.2174 23.8334 18.3333 23.8334H15C14.1159 23.8334 13.2681 23.4822 12.6429 22.8571C12.0178 22.232 11.6666 21.3841 11.6666 20.5001V15.5001L8.3333 18.8334Z" fill="#072AC8"/>
</g>
<defs>
<clipPath id="clip0_942_6345">
<rect width="40" height="40" fill="white" transform="translate(0 0.5)"/>
</clipPath>
</defs>
</svg>
