<svg width="41" height="41" viewBox="0 0 41 41" fill="none" xmlns="http://www.w3.org/2000/svg">
<g clip-path="url(#clip0_942_6341)">
<rect x="0.5" y="17.1667" width="23.3333" height="23.3333" fill="#7595FD"/>
<path d="M30.5 27.1667H27.1667V25.5001H13.8334V27.1667H10.5V25.5001H3.83337V33.8334H37.1667V25.5001H30.5V27.1667ZM33.8334 13.8334H28.8334V10.5001C28.8334 8.66675 27.3334 7.16675 25.5 7.16675H15.5C13.6667 7.16675 12.1667 8.66675 12.1667 10.5001V13.8334H7.16671C5.33337 13.8334 3.83337 15.3334 3.83337 17.1667V23.8334H10.5V20.5001H13.8334V23.8334H27.1667V20.5001H30.5V23.8334H37.1667V17.1667C37.1667 15.3334 35.6667 13.8334 33.8334 13.8334ZM25.5 13.8334H15.5V10.5001H25.5V13.8334Z" fill="white"/>
</g>
<defs>
<clipPath id="clip0_942_6341">
<rect width="40" height="40" fill="white" transform="translate(0.5 0.5)"/>
</clipPath>
</defs>
</svg>
