<svg width="33" height="33" viewBox="0 0 33 33" fill="none" xmlns="http://www.w3.org/2000/svg">
<g id="LinkedIn">
<path id="Vector" fill-rule="evenodd" clip-rule="evenodd" d="M7.66667 4.28418H26.3333C27.8061 4.28418 29 5.47809 29 6.95085V25.6175C29 27.0903 27.8061 28.2842 26.3333 28.2842H7.66667C6.19391 28.2842 5 27.0903 5 25.6175V6.95085C5 5.47809 6.19391 4.28418 7.66667 4.28418ZM11.6667 24.2842C12.0349 24.2842 12.3333 23.9856 12.3333 23.6175V14.2842C12.3333 13.916 12.0349 13.6175 11.6667 13.6175H9.66667C9.29848 13.6175 9 13.916 9 14.2842V23.6175C9 23.9856 9.29848 24.2842 9.66667 24.2842H11.6667ZM10.6667 12.2842C9.56209 12.2842 8.66667 11.3888 8.66667 10.2842C8.66667 9.17961 9.56209 8.28418 10.6667 8.28418C11.7712 8.28418 12.6667 9.17961 12.6667 10.2842C12.6667 11.3888 11.7712 12.2842 10.6667 12.2842ZM24.3333 24.2842C24.7015 24.2842 25 23.9856 25 23.6175V17.4842C25.0433 15.3652 23.4768 13.5569 21.3733 13.2975C19.9027 13.1632 18.4777 13.85 17.6667 15.0842V14.2842C17.6667 13.916 17.3681 13.6175 17 13.6175H15C14.6319 13.6175 14.3333 13.916 14.3333 14.2842V23.6175C14.3333 23.9856 14.6319 24.2842 15 24.2842H17C17.3681 24.2842 17.6667 23.9856 17.6667 23.6175V18.6175C17.6667 17.513 18.5621 16.6175 19.6667 16.6175C20.7712 16.6175 21.6667 17.513 21.6667 18.6175V23.6175C21.6667 23.9856 21.9652 24.2842 22.3333 24.2842H24.3333Z" fill="#072AC8"/>
</g>
</svg>
