<svg width="33" height="33" viewBox="0 0 33 33" fill="none" xmlns="http://www.w3.org/2000/svg">
<g id="MinusCircle">
<path id="Vector" d="M22.9082 16.4004C22.9082 16.7982 22.7502 17.1797 22.4689 17.4611C22.1876 17.7424 21.806 17.9004 21.4082 17.9004L11.4082 17.9004C11.0104 17.9004 10.6289 17.7424 10.3475 17.4611C10.0662 17.1797 9.90821 16.7982 9.90821 16.4004C9.90821 16.0026 10.0662 15.621 10.3475 15.3397C10.6289 15.0584 11.0104 14.9004 11.4082 14.9004L21.4082 14.9004C21.806 14.9004 22.1876 15.0584 22.4689 15.3397C22.7502 15.621 22.9082 16.0026 22.9082 16.4004ZM29.9082 16.4004C29.9082 19.0704 29.1164 21.6805 27.633 23.9006C26.1497 26.1207 24.0412 27.851 21.5744 28.8728C19.1076 29.8945 16.3932 30.1619 13.7745 29.641C11.1557 29.1201 8.75028 27.8343 6.86227 25.9463C4.97426 24.0583 3.68851 21.6529 3.16761 19.0341C2.64671 16.4154 2.91405 13.701 3.93584 11.2342C4.95762 8.76736 6.68795 6.65895 8.90801 5.17555C11.1281 3.69215 13.7382 2.90039 16.4082 2.90039C19.9874 2.90436 23.4189 4.32795 25.9498 6.85883C28.4806 9.38972 29.9042 12.8212 29.9082 16.4004ZM26.9082 16.4004C26.9082 14.3237 26.2924 12.2936 25.1386 10.5669C23.9849 8.84019 22.345 7.49438 20.4264 6.69966C18.5078 5.90494 16.3966 5.697 14.3598 6.10215C12.323 6.50729 10.452 7.50732 8.98359 8.97577C7.51514 10.4442 6.51511 12.3151 6.10996 14.3519C5.70482 16.3887 5.91275 18.4999 6.70747 20.4186C7.50219 22.3372 8.84801 23.9771 10.5747 25.1308C12.3014 26.2846 14.3315 26.9004 16.4082 26.9004C19.1921 26.8974 21.8611 25.7902 23.8295 23.8217C25.798 21.8532 26.9052 19.1842 26.9082 16.4004Z" fill="#343330"/>
</g>
</svg>
