<svg width="33" height="33" viewBox="0 0 33 33" fill="none" xmlns="http://www.w3.org/2000/svg">
<g id="PlusCircle">
<path id="Vector" d="M16.4082 2.90039C13.7382 2.90039 11.1281 3.69215 8.90801 5.17555C6.68795 6.65895 4.95762 8.76736 3.93584 11.2342C2.91405 13.701 2.64671 16.4154 3.16761 19.0341C3.68851 21.6529 4.97426 24.0583 6.86227 25.9463C8.75028 27.8343 11.1557 29.1201 13.7745 29.641C16.3932 30.1619 19.1076 29.8945 21.5744 28.8728C24.0412 27.851 26.1497 26.1207 27.633 23.9006C29.1164 21.6805 29.9082 19.0704 29.9082 16.4004C29.9042 12.8212 28.4806 9.38972 25.9498 6.85883C23.4189 4.32795 19.9874 2.90436 16.4082 2.90039ZM16.4082 26.9004C14.3315 26.9004 12.3014 26.2846 10.5747 25.1308C8.84801 23.9771 7.50219 22.3372 6.70747 20.4186C5.91275 18.4999 5.70482 16.3887 6.10996 14.3519C6.51511 12.3151 7.51514 10.4442 8.98359 8.97577C10.452 7.50732 12.323 6.50729 14.3598 6.10215C16.3966 5.697 18.5078 5.90494 20.4264 6.69966C22.345 7.49438 23.9849 8.84019 25.1386 10.5669C26.2924 12.2936 26.9082 14.3237 26.9082 16.4004C26.9052 19.1842 25.798 21.8532 23.8295 23.8217C21.8611 25.7902 19.1921 26.8974 16.4082 26.9004ZM22.9082 16.4004C22.9082 16.7982 22.7502 17.1797 22.4689 17.4611C22.1876 17.7424 21.806 17.9004 21.4082 17.9004L17.9082 17.9004L17.9082 21.4004C17.9082 21.7982 17.7502 22.1797 17.4689 22.4611C17.1876 22.7424 16.806 22.9004 16.4082 22.9004C16.0104 22.9004 15.6289 22.7424 15.3475 22.4611C15.0662 22.1797 14.9082 21.7982 14.9082 21.4004L14.9082 17.9004L11.4082 17.9004C11.0104 17.9004 10.6289 17.7424 10.3475 17.4611C10.0662 17.1797 9.90821 16.7982 9.90821 16.4004C9.90821 16.0026 10.0662 15.621 10.3475 15.3397C10.6289 15.0584 11.0104 14.9004 11.4082 14.9004L14.9082 14.9004L14.9082 11.4004C14.9082 11.0026 15.0662 10.621 15.3475 10.3397C15.6289 10.0584 16.0104 9.90039 16.4082 9.90039C16.806 9.90039 17.1876 10.0584 17.4689 10.3397C17.7502 10.621 17.9082 11.0026 17.9082 11.4004L17.9082 14.9004L21.4082 14.9004C21.806 14.9004 22.1876 15.0584 22.4689 15.3397C22.7502 15.621 22.9082 16.0026 22.9082 16.4004Z" fill="#343330"/>
</g>
</svg>
