<svg width="41" height="41" viewBox="0 0 41 41" fill="none" xmlns="http://www.w3.org/2000/svg">
<g clip-path="url(#clip0_942_6349)">
<rect x="0.5" y="17.1667" width="23.3333" height="23.3333" fill="#7595FD"/>
<g clip-path="url(#clip1_942_6349)">
<rect x="0.5" y="17.1667" width="23.3333" height="23.3333" fill="#7595FD"/>
<path fill-rule="evenodd" clip-rule="evenodd" d="M32.5 11.8333C31.837 11.8333 31.2011 12.0967 30.7322 12.5656C30.2634 13.0344 30 13.6703 30 14.3333V16H35V14.3333C35 13.6703 34.7366 13.0344 34.2678 12.5656C33.7989 12.0967 33.163 11.8333 32.5 11.8333ZM35 17.6667H30V31.4167L32.5 35.1667L35 31.4167V17.6667ZM5 8.5V33.5C5 34.163 5.26339 34.7989 5.73223 35.2678C6.20107 35.7366 6.83696 36 7.5 36H25.8333C26.4964 36 27.1323 35.7366 27.6011 35.2678C28.0699 34.7989 28.3333 34.163 28.3333 33.5V8.5C28.3333 7.83696 28.0699 7.20107 27.6011 6.73223C27.1323 6.26339 26.4964 6 25.8333 6H7.5C6.83696 6 6.20107 6.26339 5.73223 6.73223C5.26339 7.20107 5 7.83696 5 8.5ZM16.6667 13.5C16.6667 13.279 16.7545 13.067 16.9107 12.9107C17.067 12.7545 17.279 12.6667 17.5 12.6667H24.1667C24.3877 12.6667 24.5996 12.7545 24.7559 12.9107C24.9122 13.067 25 13.279 25 13.5C25 13.721 24.9122 13.933 24.7559 14.0893C24.5996 14.2455 24.3877 14.3333 24.1667 14.3333H17.5C17.279 14.3333 17.067 14.2455 16.9107 14.0893C16.7545 13.933 16.6667 13.721 16.6667 13.5ZM17.5 16C17.279 16 17.067 16.0878 16.9107 16.2441C16.7545 16.4004 16.6667 16.6123 16.6667 16.8333C16.6667 17.0543 16.7545 17.2663 16.9107 17.4226C17.067 17.5789 17.279 17.6667 17.5 17.6667H24.1667C24.3877 17.6667 24.5996 17.5789 24.7559 17.4226C24.9122 17.2663 25 17.0543 25 16.8333C25 16.6123 24.9122 16.4004 24.7559 16.2441C24.5996 16.0878 24.3877 16 24.1667 16H17.5ZM16.6667 24.3333C16.6667 24.1123 16.7545 23.9004 16.9107 23.7441C17.067 23.5878 17.279 23.5 17.5 23.5H24.1667C24.3877 23.5 24.5996 23.5878 24.7559 23.7441C24.9122 23.9004 25 24.1123 25 24.3333C25 24.5543 24.9122 24.7663 24.7559 24.9226C24.5996 25.0789 24.3877 25.1667 24.1667 25.1667H17.5C17.279 25.1667 17.067 25.0789 16.9107 24.9226C16.7545 24.7663 16.6667 24.5543 16.6667 24.3333ZM17.5 26.8333C17.279 26.8333 17.067 26.9211 16.9107 27.0774C16.7545 27.2337 16.6667 27.4457 16.6667 27.6667C16.6667 27.8877 16.7545 28.0996 16.9107 28.2559C17.067 28.4122 17.279 28.5 17.5 28.5H24.1667C24.3877 28.5 24.5996 28.4122 24.7559 28.2559C24.9122 28.0996 25 27.8877 25 27.6667C25 27.4457 24.9122 27.2337 24.7559 27.0774C24.5996 26.9211 24.3877 26.8333 24.1667 26.8333H17.5ZM10 24.3333V26.8333H12.5V24.3333H10ZM9.16667 22.6667H13.3333C13.5543 22.6667 13.7663 22.7545 13.9226 22.9107C14.0789 23.067 14.1667 23.279 14.1667 23.5V27.6667C14.1667 27.8877 14.0789 28.0996 13.9226 28.2559C13.7663 28.4122 13.5543 28.5 13.3333 28.5H9.16667C8.94565 28.5 8.73369 28.4122 8.57741 28.2559C8.42113 28.0996 8.33333 27.8877 8.33333 27.6667V23.5C8.33333 23.279 8.42113 23.067 8.57741 22.9107C8.73369 22.7545 8.94565 22.6667 9.16667 22.6667ZM14.7558 14.0892C14.9076 13.932 14.9916 13.7215 14.9897 13.503C14.9878 13.2845 14.9002 13.0755 14.7457 12.921C14.5912 12.7665 14.3822 12.6788 14.1637 12.6769C13.9452 12.675 13.7347 12.759 13.5775 12.9108L10.8333 15.655L9.75583 14.5775C9.59866 14.4257 9.38816 14.3417 9.16967 14.3436C8.95117 14.3455 8.74216 14.4331 8.58765 14.5877C8.43314 14.7422 8.3455 14.9512 8.34361 15.1697C8.34171 15.3882 8.4257 15.5987 8.5775 15.7558L10.8333 18.0117L14.7558 14.0892Z" fill="white"/>
</g>
</g>
<defs>
<clipPath id="clip0_942_6349">
<rect width="40" height="40" fill="white" transform="translate(0.5 0.5)"/>
</clipPath>
<clipPath id="clip1_942_6349">
<rect width="40" height="40" fill="white" transform="translate(0.5 0.5)"/>
</clipPath>
</defs>
</svg>
