<svg width="14" height="18" viewBox="0 0 14 18" fill="none" xmlns="http://www.w3.org/2000/svg">
<path d="M12 0.185059H2C1.46957 0.185059 0.960859 0.395772 0.585786 0.770845C0.210714 1.14592 0 1.65463 0 2.18506V17.3231C2.8237e-05 17.4106 0.0230491 17.4966 0.0667596 17.5725C0.11047 17.6484 0.173337 17.7114 0.249072 17.7554C0.324806 17.7993 0.410752 17.8226 0.498311 17.8229C0.585869 17.8232 0.671971 17.8005 0.748 17.7571L6.008 14.7521C6.31013 14.5795 6.65205 14.4887 7 14.4887C7.34795 14.4887 7.68987 14.5795 7.992 14.7521L13.252 17.7581C13.3281 17.8015 13.4143 17.8242 13.5019 17.8239C13.5896 17.8236 13.6756 17.8002 13.7514 17.7561C13.8271 17.7121 13.89 17.6489 13.9336 17.5729C13.9773 17.4968 14.0001 17.4107 14 17.3231V2.18506C14 1.65463 13.7893 1.14592 13.4142 0.770845C13.0391 0.395772 12.5304 0.185059 12 0.185059Z" fill="#072AC8"/>
</svg>
