<svg width="22" height="22" viewBox="0 0 22 22" fill="none" xmlns="http://www.w3.org/2000/svg">
<g id="icon-park-outline:eyes">
<g id="Group">
<path id="Vector" d="M11.147 18.114C15.4962 18.114 19.022 14.4731 19.022 11.989C19.022 9.50483 15.4962 5.86395 11.147 5.86395C6.79779 5.86395 3.27197 9.50745 3.27197 11.989C3.27197 14.4705 6.79779 18.114 11.147 18.114Z" stroke="#072AC8" stroke-width="1.75" stroke-linejoin="round"/>
<path id="Vector_2" d="M11.147 14.614C11.8432 14.614 12.5108 14.3375 13.0031 13.8452C13.4954 13.3529 13.772 12.6852 13.772 11.989C13.772 11.2928 13.4954 10.6251 13.0031 10.1329C12.5108 9.64058 11.8432 9.36401 11.147 9.36401C10.4508 9.36401 9.7831 9.64058 9.29082 10.1329C8.79853 10.6251 8.52197 11.2928 8.52197 11.989C8.52197 12.6852 8.79853 13.3529 9.29082 13.8452C9.7831 14.3375 10.4508 14.614 11.147 14.614Z" stroke="#072AC8" stroke-width="1.75" stroke-linejoin="round"/>
<path id="Vector_3" d="M6.44971 5.10533L7.58458 6.68908M16.2326 5.29958L15.0973 6.88333M11.1506 3.23895V5.86395" stroke="#072AC8" stroke-width="1.75" stroke-linecap="round"/>
</g>
</g>
</svg>
