<svg width="48" height="49" viewBox="0 0 48 49" fill="none" xmlns="http://www.w3.org/2000/svg">
<g id="lets-icons:video-fill">
<path id="Vector" fill-rule="evenodd" clip-rule="evenodd" d="M25.2 44.9C27.7214 44.9 30.2181 44.4034 32.5475 43.4385C34.877 42.4736 36.9936 41.0593 38.7764 39.2764C40.5593 37.4936 41.9736 35.377 42.9385 33.0475C43.9034 30.7181 44.4 28.2214 44.4 25.7C44.4 23.1786 43.9034 20.6819 42.9385 18.3525C41.9736 16.023 40.5593 13.9064 38.7764 12.1235C36.9936 10.3407 34.877 8.9264 32.5475 7.96151C30.2181 6.99662 27.7214 6.5 25.2 6.5C20.1078 6.5 15.2242 8.52285 11.6235 12.1235C8.02285 15.7242 6 20.6078 6 25.7C6 30.7922 8.02285 35.6757 11.6235 39.2764C15.2242 42.8771 20.1078 44.9 25.2 44.9ZM22.6037 17.1453L34.6443 23.8355C34.9767 24.0203 35.2536 24.2906 35.4465 24.6184C35.6393 24.9463 35.741 25.3197 35.741 25.7C35.741 26.0803 35.6393 26.4537 35.4465 26.7816C35.2536 27.1094 34.9767 27.3797 34.6443 27.5645L22.6037 34.2547C22.2139 34.4714 21.7741 34.5824 21.3281 34.5769C20.8821 34.5713 20.4453 34.4494 20.0609 34.223C19.6766 33.9967 19.3581 33.6738 19.1369 33.2865C18.9157 32.8991 18.7996 32.4607 18.8 32.0147V19.3853C18.7996 18.9393 18.9157 18.5009 19.1369 18.1135C19.3581 17.7262 19.6766 17.4033 20.0609 17.177C20.4453 16.9506 20.8821 16.8287 21.3281 16.8231C21.7741 16.8175 22.2139 16.9286 22.6037 17.1453Z" fill="#072AC8"/>
</g>
</svg>
