<svg width="40" height="40" viewBox="0 0 40 40" fill="none" xmlns="http://www.w3.org/2000/svg">
<g id="streamline:class-lesson-solid">
<path id="Vector" fill-rule="evenodd" clip-rule="evenodd" d="M34.9048 25.0811H23.0958C24.4358 24.9475 25.6782 24.2408 26.565 23.108C27.4518 21.9752 27.9147 20.5033 27.8577 18.9981C27.8006 17.493 27.228 16.0703 26.2586 15.0257C25.2893 13.9811 23.9979 13.3949 22.6527 13.3889H18.7952C19.3719 12.5204 19.7844 11.5294 20.0074 10.4763C20.2305 9.42325 20.2594 8.33031 20.0924 7.26431C19.9254 6.19831 19.566 5.18166 19.0362 4.27651C18.5064 3.37136 17.8173 2.59674 17.0111 2L34.9048 2C35.7261 2.00136 36.5134 2.3677 37.0937 3.01857C37.674 3.66945 38 4.55164 38 5.47143V21.6174C38 23.5306 36.6131 25.0837 34.9048 25.0837V25.0811ZM13.0824 13.394C13.6478 13.4087 14.2101 13.2967 14.7363 13.0646C15.2625 12.8325 15.7419 12.4849 16.1465 12.0423C16.551 11.5997 16.8724 11.071 17.0919 10.4873C17.3113 9.90358 17.4244 9.27663 17.4244 8.64329C17.4244 8.00994 17.3113 7.38299 17.0919 6.79927C16.8724 6.21556 16.551 5.68686 16.1465 5.24426C15.7419 4.80166 15.2625 4.45408 14.7363 4.22195C14.2101 3.98983 13.6478 3.87784 13.0824 3.89257C11.9745 3.92144 10.9205 4.43464 10.146 5.32242C9.37151 6.21021 8.9379 7.40212 8.9379 8.64329C8.9379 9.88445 9.37151 11.0764 10.146 11.9641C10.9205 12.8519 11.9745 13.3651 13.0824 13.394ZM25.0108 19.2466C25.0108 17.786 23.9546 16.6031 22.6527 16.6031H13.0847C12.2856 16.6028 11.4942 16.7788 10.7559 17.1212C10.0175 17.4635 9.34658 17.9654 8.7815 18.5982C8.21643 19.2311 7.76824 19.9824 7.46256 20.8093C7.15688 21.6362 6.9997 22.5225 7 23.4174V26.516C7 27.884 7.99193 28.9923 9.21347 28.9923H9.6084L10.2559 35.7037C10.3165 36.3339 10.5827 36.9168 11.0035 37.3406C11.4243 37.7644 11.97 37.9992 12.536 38H13.6886C14.2425 37.9997 14.7777 37.7752 15.1954 37.3679C15.6132 36.9605 15.8853 36.3978 15.9618 35.7834L17.6908 21.8874H22.6504C23.9523 21.8874 25.0085 20.7046 25.0085 19.2466H25.0108Z" fill="#072AC8"/>
</g>
</svg>
