<svg width="88" height="88" viewBox="0 0 88 88" fill="none" xmlns="http://www.w3.org/2000/svg">
<g id="ph:student-light">
<path id="Vector" d="M77.6531 20.0441L44.6531 9.04407C44.2292 8.90255 43.7708 8.90255 43.3469 9.04407L10.3469 20.0441C9.93649 20.1811 9.57958 20.4437 9.32666 20.7947C9.07373 21.1457 8.93759 21.5674 8.9375 22V49.5C8.9375 50.047 9.1548 50.5716 9.54159 50.9584C9.92839 51.3452 10.453 51.5625 11 51.5625C11.547 51.5625 12.0716 51.3452 12.4584 50.9584C12.8452 50.5716 13.0625 50.047 13.0625 49.5V24.86L26.3587 29.2944C24.682 31.7723 23.5458 34.5755 23.0241 37.5216C22.5023 40.4677 22.6067 43.4906 23.3305 46.3937C24.0542 49.2968 25.3811 52.0149 27.2247 54.3713C29.0684 56.7277 31.3875 58.6695 34.0312 60.0703C27.4141 62.315 21.6562 66.8044 17.5312 73.1328C17.2941 73.587 17.2345 74.1131 17.364 74.6088C17.4936 75.1045 17.8029 75.5342 18.2319 75.8143C18.6608 76.0944 19.1787 76.2049 19.6846 76.1241C20.1905 76.0434 20.6483 75.7772 20.9688 75.3775C26.2866 67.2341 34.6775 62.5625 44 62.5625C53.3225 62.5625 61.7134 67.2341 67.0312 75.3775C67.3498 75.7857 67.8101 76.0592 68.321 76.1436C68.8318 76.2281 69.3557 76.1173 69.7886 75.8333C70.2215 75.5493 70.5318 75.1128 70.6578 74.6106C70.7838 74.1085 70.7163 73.5772 70.4688 73.1225C66.3438 66.8044 60.5928 62.315 53.9688 60.06C56.6111 58.6576 58.9286 56.7147 60.7705 54.3576C62.6124 52.0006 63.9375 49.2822 64.6596 46.3792C65.3817 43.4763 65.4846 40.4538 64.9616 37.5085C64.4386 34.5632 63.3014 31.7609 61.6241 29.2841L77.6531 23.9559C78.0633 23.8187 78.4199 23.556 78.6726 23.205C78.9253 22.854 79.0612 22.4325 79.0612 22C79.0612 21.5675 78.9253 21.146 78.6726 20.795C78.4199 20.444 78.0633 20.1813 77.6531 20.0441ZM61.1875 41.25C61.1887 43.9888 60.5354 46.6882 59.2821 49.1233C58.0287 51.5584 56.2115 53.6588 53.982 55.2494C51.7525 56.84 49.1751 57.8747 46.4647 58.2675C43.7542 58.6602 40.9891 58.3995 38.3998 57.5072C35.8105 56.6148 33.472 55.1166 31.579 53.1374C29.686 51.1581 28.2934 48.7552 27.5172 46.1287C26.741 43.5022 26.6037 40.7283 27.1167 38.038C27.6298 35.3477 28.7783 32.819 30.4666 30.6625L43.3469 34.9559C43.7708 35.0975 44.2292 35.0975 44.6531 34.9559L57.5334 30.6625C59.9047 33.6818 61.1917 37.4109 61.1875 41.25ZM44 30.8275L17.5312 22L44 13.1725L70.4688 22L44 30.8275Z" fill="#072AC8"/>
</g>
</svg>
