<svg width="29" height="28" viewBox="0 0 29 28" fill="none" xmlns="http://www.w3.org/2000/svg">
<g id="design-ideas 1">
<path id="Vector" d="M7.47393 2.41968C7.77709 2.56539 7.96989 2.87196 7.96989 3.20833C7.96989 4.17647 8.33402 4.73388 8.79021 5.41271L8.82338 5.46202C9.21134 6.0384 9.71989 6.79395 9.71989 7.87499C9.71989 8.97809 9.16318 9.95117 8.3154 10.5286C8.53844 10.7156 8.73606 10.9462 8.90585 11.221C9.4609 12.1193 9.71989 13.4919 9.71989 15.464C9.71989 17.4615 9.45159 19.8601 9.01453 21.7751C8.79722 22.7273 8.52806 23.6057 8.2064 24.2659C8.04687 24.5933 7.85262 24.9131 7.61075 25.1632C7.37155 25.4104 7.00196 25.6724 6.51156 25.6724C6.02115 25.6724 5.65156 25.4104 5.41236 25.1632C5.1705 24.9131 4.97625 24.5933 4.81672 24.2659C4.49505 23.6057 4.22589 22.7273 4.00858 21.7751C3.57152 19.8601 3.30322 17.4615 3.30322 15.464C3.30322 13.4919 3.56221 12.1193 4.11726 11.221C4.28705 10.9462 4.48467 10.7156 4.70771 10.5286C3.85993 9.95117 3.30322 8.97809 3.30322 7.87499C3.30322 7.44543 3.30362 6.70702 3.75053 5.75361C4.18789 4.82055 5.01899 3.74849 6.54828 2.52507C6.81093 2.31494 7.17077 2.27398 7.47393 2.41968ZM5.05322 7.87352V7.87499C5.05322 8.6804 5.70614 9.33332 6.51156 9.33332C7.31698 9.33332 7.96989 8.6804 7.96989 7.87499C7.96989 7.36278 7.75427 7.00865 7.33772 6.38882L7.32346 6.3676C7.05645 5.97036 6.74107 5.50119 6.516 4.89713C5.88217 5.54163 5.53214 6.07598 5.33508 6.49637C5.05322 7.09768 5.05322 7.52556 5.05322 7.87352ZM5.60602 12.1409C5.31656 12.6093 5.05322 13.5701 5.05322 15.464C5.05322 17.3326 5.30725 19.6006 5.7147 21.3857C5.91964 22.2837 6.15326 23.0136 6.38992 23.4994C6.43348 23.5888 6.47429 23.6639 6.51156 23.7264C6.54882 23.6639 6.58963 23.5888 6.63319 23.4994C6.86985 23.0136 7.10348 22.2837 7.30841 21.3857C7.71586 19.6006 7.96989 17.3326 7.96989 15.464C7.96989 13.5701 7.70655 12.6093 7.41709 12.1409C7.28537 11.9276 7.15461 11.8267 7.03778 11.77C6.91198 11.709 6.74568 11.6724 6.51156 11.6724C6.27743 11.6724 6.11113 11.709 5.98533 11.77C5.8685 11.8267 5.73774 11.9276 5.60602 12.1409Z" fill="#072AC8"/>
<path id="Vector_2" d="M12.6366 17.4031C12.0085 17.2978 11.4088 17.1088 10.8494 16.848C10.8739 16.374 10.8866 15.9098 10.8866 15.464C10.8866 15.2589 10.8839 15.0576 10.8784 14.8605C11.4047 15.2141 11.9986 15.4751 12.6366 15.6199V12.2499C12.6366 11.2834 13.4201 10.4999 14.3865 10.4999H19.0532C19.0532 7.60045 16.7027 5.24994 13.8032 5.24994C12.6034 5.24994 11.4976 5.65242 10.6135 6.32971C10.3807 5.68522 10.048 5.19155 9.81651 4.84807L9.76953 4.77828C10.9097 3.97301 12.3012 3.49994 13.8032 3.49994C17.6692 3.49994 20.8032 6.63394 20.8032 10.4999H24.8865C25.8531 10.4999 26.6365 11.2834 26.6365 12.2499V22.7499C26.6365 23.7164 25.8531 24.4999 24.8865 24.4999H14.3865C13.4201 24.4999 12.6366 23.7164 12.6366 22.7499V17.4031ZM14.3865 17.476V22.7499H24.8865V12.2499H20.5827C19.8525 15.0873 17.388 17.2283 14.3865 17.476ZM18.7545 12.2499H14.3865V15.7179C16.4155 15.4936 18.0959 14.1131 18.7545 12.2499Z" fill="#072AC8"/>
</g>
</svg>
