<svg width="29" height="28" viewBox="0 0 29 28" fill="none" xmlns="http://www.w3.org/2000/svg">
<g id="internet-security 1" clip-path="url(#clip0_2839_4556)">
<g id="Group">
<g id="Group_2">
<path id="Vector" d="M5.83105 15.2098C5.87851 16.7837 6.0944 18.2809 6.44969 19.6178C7.71788 19.0875 9.07903 18.7887 10.4824 18.7161V15.2098H5.83105Z" fill="#072AC8" fill-opacity="0.5"/>
</g>
</g>
<g id="Group_3">
<g id="Group_4">
<path id="Vector_2" d="M6.45567 9.50287C6.09665 10.8459 5.87881 12.3525 5.83105 13.936H10.4824V10.4017C9.08122 10.3292 7.72209 10.0316 6.45567 9.50287Z" fill="#072AC8" fill-opacity="0.5"/>
</g>
</g>
<g id="Group_5">
<g id="Group_6">
<path id="Vector_3" d="M6.84229 8.27743C7.98559 8.76934 9.2135 9.05437 10.4828 9.12783V3.83514C9.00454 4.21579 7.69571 5.89443 6.84229 8.27743Z" fill="#072AC8" fill-opacity="0.5"/>
</g>
</g>
<g id="Group_7">
<g id="Group_8">
<path id="Vector_4" d="M20.0568 8.13789C18.9563 7.55641 17.755 7.1744 16.4957 6.99999L16.0738 12.2758C17.5776 12.0142 19.0161 10.4453 20.0568 8.13789Z" fill="#072AC8" fill-opacity="0.5"/>
</g>
</g>
<g id="Group_9">
<g id="Group_10">
<path id="Vector_5" d="M3.07363 7.35193C1.48368 9.12169 0.471665 11.4117 0.32373 13.9359H4.55807C4.60718 12.1248 4.85868 10.4298 5.28026 8.92855C4.49349 8.49357 3.75684 7.96262 3.07363 7.35193Z" fill="#072AC8" fill-opacity="0.5"/>
</g>
</g>
<g id="Group_11">
<g id="Group_12">
<path id="Vector_6" d="M3.97852 6.45455C4.5103 6.92311 5.07958 7.33374 5.68133 7.68482C6.17484 6.3533 6.81213 5.22664 7.55287 4.36084C6.22389 4.8265 5.01465 5.54194 3.97852 6.45455Z" fill="#072AC8" fill-opacity="0.5"/>
</g>
</g>
<g id="Group_13">
<g id="Group_14">
<path id="Vector_7" d="M6.83301 20.8446C7.68619 23.2404 8.99911 24.9287 10.4823 25.3107V19.99C9.20967 20.0637 7.97892 20.3503 6.83301 20.8446Z" fill="#072AC8" fill-opacity="0.5"/>
</g>
</g>
<g id="Group_15">
<g id="Group_16">
<path id="Vector_8" d="M13.1216 5.13308L13.5246 5.01424C13.5363 5.01086 13.5467 5.00725 13.5583 5.00375C13.0795 4.48347 12.4714 4.01982 11.7568 3.83539V9.13862C12.274 9.10858 12.7863 9.04104 13.2907 8.93843C12.9173 7.00374 13.0677 5.58494 13.0719 5.54952L13.1216 5.13308Z" fill="#072AC8" fill-opacity="0.5"/>
</g>
</g>
<g id="Group_17">
<g id="Group_18">
<path id="Vector_9" d="M5.67155 21.4384C5.06732 21.7918 4.49596 22.2053 3.9624 22.6772C5.00209 23.5964 6.21649 24.3169 7.55222 24.785C6.8071 23.9141 6.16625 22.7801 5.67155 21.4384Z" fill="#072AC8" fill-opacity="0.5"/>
</g>
</g>
<g id="Group_19">
<g id="Group_20">
<path id="Vector_10" d="M4.55807 15.2098H0.32373C0.47125 17.7267 1.4777 20.0109 3.05965 21.7785C3.74488 21.1641 4.48419 20.6303 5.27398 20.193C4.85642 18.6976 4.60695 17.0114 4.55807 15.2098Z" fill="#072AC8" fill-opacity="0.5"/>
</g>
</g>
<g id="Group_21">
<g id="Group_22">
<path id="Vector_11" d="M11.7568 19.9901V25.3121C13.2508 24.9346 14.5701 23.2583 15.4214 20.8512C14.2713 20.3531 13.0353 20.064 11.7568 19.9901Z" fill="#072AC8" fill-opacity="0.5"/>
</g>
</g>
<g id="Group_23">
<g id="Group_24">
<path id="Vector_12" d="M13.5892 10.1763C12.9868 10.3012 12.3741 10.3804 11.7559 10.4126V13.936H15.4009C14.5027 12.6769 13.9382 11.3725 13.5892 10.1763Z" fill="#072AC8" fill-opacity="0.5"/>
</g>
</g>
<g id="Group_25">
<g id="Group_26">
<path id="Vector_13" d="M11.7568 15.2098V18.7161C13.1624 18.7888 14.5255 19.0882 15.795 19.6198C16.146 18.2859 16.3635 16.7925 16.41 15.2098H11.7568Z" fill="#072AC8" fill-opacity="0.5"/>
</g>
</g>
<g id="Group_27">
<g id="Group_28">
<path id="Vector_14" d="M21.0617 18.344C19.7005 17.7653 18.5712 17.068 17.6298 16.303C17.5238 17.692 17.289 18.9958 16.9531 20.1851C17.7538 20.6271 18.5024 21.1691 19.1957 21.7931C20.0654 20.8201 20.7601 19.6808 21.2373 18.4184L21.0617 18.344Z" fill="#072AC8" fill-opacity="0.5"/>
</g>
</g>
<g id="Group_29">
<g id="Group_30">
<path id="Vector_15" d="M16.5527 21.4293C16.0474 22.7886 15.3947 23.94 14.6362 24.817C15.9925 24.3538 17.2302 23.6253 18.2903 22.6895C17.7485 22.2086 17.1676 21.7876 16.5527 21.4293Z" fill="#072AC8" fill-opacity="0.5"/>
</g>
</g>
</g>
<defs>
<clipPath id="clip0_2839_4556">
<rect width="28" height="28" fill="white" transform="translate(0.32373)"/>
</clipPath>
</defs>
</svg>
