<svg width="48" height="48" viewBox="0 0 48 48" fill="none" xmlns="http://www.w3.org/2000/svg">
<g id="analysis-analytical-business 2">
<g id="_x37_47_x2C__Analysis_x2C__analytical_x2C__management_x2C__online_x2C__platform">
<g id="Group">
<path id="Vector" fill-rule="evenodd" clip-rule="evenodd" d="M4.14938 22.9911C4.14938 23.1736 4.00181 23.3212 3.81938 23.3212C3.63825 23.3212 3.49069 23.1737 3.49069 22.9911V14.0694C3.49069 13.4978 3.72412 12.98 4.09837 12.6042C4.47675 12.2287 4.99462 11.9952 5.56331 11.9952H8.56331C8.74575 11.9952 8.89331 12.1428 8.89331 12.3253C8.89331 12.5051 8.74575 12.6554 8.56331 12.6554H5.56331C5.17575 12.6554 4.82156 12.8137 4.56525 13.0686C4.30894 13.3262 4.14938 13.6804 4.14938 14.0695V22.9911ZM18.5918 26.6429H20.3855C20.5679 26.6429 20.7155 26.7905 20.7155 26.973V31.2231C20.7155 31.4056 20.5679 31.5532 20.3855 31.5532H18.5918C18.4107 31.5532 18.2617 31.4056 18.2617 31.2231V26.973C18.2617 26.7906 18.4107 26.6429 18.5918 26.6429ZM21.5997 23.8953H23.392C23.5732 23.8953 23.722 24.0428 23.722 24.2254V31.2233C23.722 31.4058 23.5732 31.5533 23.392 31.5533H21.5997C21.4173 31.5533 21.2696 31.4058 21.2696 31.2233V24.2254C21.2697 24.0428 21.4173 23.8953 21.5997 23.8953ZM24.6063 27.3942H26.3999C26.5811 27.3942 26.7301 27.5418 26.7301 27.7242V31.2232C26.7301 31.4057 26.581 31.5532 26.3999 31.5532H24.6063C24.4252 31.5532 24.2763 31.4057 24.2763 31.2232V27.7242C24.2763 27.5418 24.4252 27.3942 24.6063 27.3942ZM27.6142 25.1968H29.4065C29.589 25.1968 29.7366 25.3443 29.7366 25.5268V31.2233C29.7366 31.4058 29.589 31.5533 29.4065 31.5533H27.6142C27.433 31.5533 27.2841 31.4058 27.2841 31.2233V25.5268C27.2841 25.3443 27.433 25.1968 27.6142 25.1968ZM30.0438 31.9075C30.2262 31.9075 30.3739 32.055 30.3739 32.2375C30.3739 32.4173 30.2263 32.5676 30.0438 32.5676H17.9558C17.7734 32.5676 17.6258 32.4173 17.6258 32.2375C17.6258 32.0551 17.7734 31.9075 17.9558 31.9075H30.0438ZM20.1145 6.08137C20.3935 6.08137 20.6458 6.19406 20.8282 6.37641L20.8497 6.40069C21.0188 6.58041 21.1235 6.82462 21.1235 7.09022C21.1235 7.36922 21.0108 7.6215 20.8282 7.80403C20.7209 7.91137 20.5908 7.99444 20.4445 8.04553V8.45597L20.9798 8.99259L22.1483 7.82269V6.06816C22.1483 5.88553 22.2959 5.73797 22.4784 5.73797C22.6609 5.73797 22.8084 5.88553 22.8084 6.06816V7.95694C22.8084 8.05631 22.7642 8.14481 22.6944 8.2065L21.4453 9.45694L23.9796 11.9952C24.0428 12.0596 24.0748 12.1428 24.0748 12.2259L24.0761 19.5995C24.0761 19.7819 23.9286 19.9296 23.7474 19.9296C23.565 19.9296 23.4174 19.782 23.4174 19.5995V12.3627C22.2448 11.1876 21.0724 10.0149 19.8998 8.83969C19.8301 8.78081 19.7858 8.68941 19.7858 8.59031V8.04562C19.6396 7.99453 19.5095 7.91138 19.4035 7.80413L19.382 7.77994C19.2115 7.60012 19.1082 7.35862 19.1082 7.09031C19.1082 6.81394 19.2209 6.56175 19.4035 6.37931C19.5847 6.19406 19.8368 6.08137 20.1145 6.08137ZM30.2894 6.3765C30.4718 6.19416 30.724 6.08147 31.0017 6.08147C31.2661 6.08147 31.5089 6.18609 31.69 6.35522L31.7142 6.37941C31.8967 6.55912 32.0093 6.81403 32.0093 7.09041C32.0093 7.36941 31.8967 7.62169 31.7142 7.80422C31.6068 7.91156 31.4767 7.99463 31.3317 8.04291V8.59041C31.3317 8.68959 31.2876 8.78091 31.2178 8.83978C30.0452 10.015 28.8727 11.1877 27.7001 12.3628V19.5996C27.7001 19.782 27.5526 19.9297 27.37 19.9297C27.1877 19.9297 27.04 19.7821 27.04 19.5996V12.2259C27.0427 12.1428 27.0734 12.0596 27.1366 11.9952L29.6722 9.45694L28.4219 8.2065C28.352 8.14481 28.309 8.05622 28.309 7.95694V6.06816C28.309 5.88553 28.4567 5.73797 28.6391 5.73797C28.8203 5.73797 28.9679 5.88553 28.9679 6.06816V7.82288L30.1363 8.99278L30.6717 8.45616V8.04562C30.5254 7.99453 30.3967 7.91138 30.2894 7.80413C30.107 7.62159 29.9943 7.36922 29.9943 7.09031C29.9943 6.82472 30.0989 6.5805 30.2678 6.40078L30.2894 6.3765ZM6.38456 43.2199C6.20194 43.2199 6.05447 43.0697 6.05447 42.8899C6.05447 42.7074 6.20203 42.5598 6.38456 42.5598H33.3335C33.5146 42.5598 33.6636 42.7073 33.6636 42.8899C33.6636 43.0697 33.5146 43.2199 33.3335 43.2199H6.38456ZM22.1645 44.8594C21.9833 44.8594 21.8345 44.7091 21.8345 44.5293C21.8345 44.3468 21.9833 44.1993 22.1645 44.1993H40.8129C40.9954 44.1993 41.143 44.3468 41.143 44.5293C41.143 44.7091 40.9955 44.8594 40.8129 44.8594H22.1645ZM42.7221 44.8594C42.5408 44.8594 42.392 44.7091 42.392 44.5293C42.392 44.3468 42.5408 44.1993 42.7221 44.1993H45.0537C45.2349 44.1993 45.3825 44.3468 45.3825 44.5293C45.3825 44.7091 45.2349 44.8594 45.0537 44.8594H42.7221ZM5.32331 44.8084C5.14088 44.8084 4.99313 44.6608 4.99313 44.4783C4.99313 44.2957 5.14088 44.1483 5.32331 44.1483H14.1591C14.3417 44.1483 14.4893 44.2957 14.4893 44.4783C14.4893 44.6608 14.3417 44.8084 14.1591 44.8084H5.32331ZM18.2633 37.1826V38.2641H29.7367V37.1826V36.5226H43.1848H45.2321H45.2402C45.4187 36.5281 45.5624 36.6756 45.5624 36.8526V38.9884C45.5624 39.1549 45.4361 39.2944 45.2725 39.3158L34.1157 41.4596L34.0539 41.4651H13.9459L13.8626 41.4544L2.70581 39.3105C2.54738 39.281 2.4375 39.1414 2.4375 38.9884V36.8526C2.4375 36.6727 2.58506 36.5226 2.7675 36.5226H3.42881H4.8135H18.2632V37.1826H18.2633ZM6.88763 13.2617H21.3127V12.8807L20.1655 11.7323C19.6852 12.1723 18.73 13.0391 18.726 13.0417C18.5932 13.1651 18.384 13.1544 18.2633 13.0231C18.1397 12.8888 18.1491 12.6796 18.2833 12.5588C18.2873 12.5562 19.2639 11.6868 19.7094 11.2761L17.8245 9.38991C17.7534 9.32822 17.7105 9.23962 17.7105 9.14034V5.10206C17.5656 5.05116 17.4341 4.96781 17.328 4.86056C17.1442 4.67822 17.0316 4.42594 17.0316 4.14956C17.0316 3.87038 17.1442 3.61819 17.3267 3.43584L17.3509 3.41428C17.5333 3.24272 17.7748 3.14072 18.0405 3.14072C18.3195 3.14072 18.5704 3.25341 18.7528 3.43584L18.7744 3.45731C18.9446 3.63984 19.0479 3.88116 19.0479 4.14966C19.0479 4.42603 18.9352 4.67831 18.7528 4.86066C18.6469 4.968 18.5154 5.05125 18.3705 5.10216V9.00347C19.539 10.1761 20.7077 11.3433 21.8762 12.5159C21.9392 12.5776 21.9714 12.6635 21.9714 12.7467L21.9728 19.5834C21.9728 19.7633 21.8239 19.9135 21.6427 19.9135C21.4616 19.9135 21.3127 19.7633 21.3127 19.5834V16.0094H7.71394V34.4378H40.2844V16.0094H29.8036V19.5834C29.8036 19.7633 29.656 19.9135 29.4735 19.9135C29.2924 19.9135 29.1448 19.7633 29.1448 19.5834V12.7467C29.1462 12.6635 29.1784 12.5776 29.2402 12.5159C30.4101 11.3433 31.5773 10.1761 32.7471 9.00347V5.10206C32.6021 5.05116 32.4707 4.96781 32.3633 4.86056C32.1822 4.67822 32.0683 4.42594 32.0683 4.14956C32.0683 3.88116 32.1729 3.63975 32.3419 3.45722L32.3633 3.43575C32.5459 3.25331 32.7981 3.14062 33.0771 3.14062C33.3533 3.14062 33.607 3.25331 33.7896 3.43575C33.9707 3.61809 34.0846 3.87038 34.0846 4.14947C34.0846 4.42584 33.9706 4.67813 33.7896 4.86047C33.6835 4.96781 33.552 5.05106 33.4072 5.10197V9.14016C33.4072 9.23953 33.3615 9.32803 33.2917 9.38972L31.4081 11.2759C31.843 11.6919 32.8007 12.5855 32.8035 12.588C32.9377 12.7116 32.9457 12.9181 32.825 13.0522C32.7016 13.1866 32.4949 13.1947 32.3607 13.0737C32.3582 13.0683 31.4163 12.1882 30.9455 11.7374L29.8036 12.8804V13.2614H41.1106C41.6822 13.2614 42.2 13.4948 42.5757 13.8705C42.9514 14.249 43.1847 14.7668 43.1847 15.3355V35.8649H4.8135V15.3355C4.8135 14.7668 5.04694 14.249 5.4225 13.8732C5.79956 13.495 6.31744 13.2617 6.88763 13.2617Z" fill="#072AC8"/>
</g>
</g>
</g>
</svg>
