<svg width="41" height="41" viewBox="0 0 41 41" fill="none" xmlns="http://www.w3.org/2000/svg">
<g clip-path="url(#clip0_942_6358)">
<rect x="0.5" y="17.1667" width="23.3333" height="23.3333" fill="#7595FD"/>
<path d="M19.758 15C20.766 13.78 22.292 13 24 13C25.708 13 27.234 13.78 28.242 15C28.9056 15.8046 29.3268 16.7814 29.4564 17.8163C29.586 18.8512 29.4186 19.9016 28.9738 20.845C28.529 21.7884 27.8252 22.5859 26.9443 23.1445C26.0635 23.703 25.042 23.9996 23.999 23.9996C22.956 23.9996 21.9345 23.703 21.0537 23.1445C20.1728 22.5859 19.469 21.7884 19.0242 20.845C18.5794 19.9016 18.412 18.8512 18.5416 17.8163C18.6712 16.7814 19.0924 15.8046 19.756 15M31.498 18.5C31.498 17.236 31.186 16.044 30.634 15H39C39.7957 15 40.5587 15.3161 41.1213 15.8787C41.6839 16.4413 42 17.2044 42 18V19C42 22.174 39.588 25.424 35.37 26.568C34.9365 25.7894 34.3028 25.1407 33.5345 24.6892C32.7662 24.2377 31.8912 23.9998 31 24H29.1C29.8581 23.2986 30.4627 22.4478 30.8757 21.5012C31.2888 20.5546 31.5013 19.5328 31.5 18.5M31 26C31.3943 25.9989 31.7848 26.0758 32.1493 26.2262C32.5138 26.3766 32.8449 26.5975 33.1237 26.8763C33.4025 27.1551 33.6234 27.4862 33.7738 27.8507C33.9242 28.2152 34.0011 28.6057 34 29V30C34 33.942 30.28 38 24 38C17.72 38 14 33.942 14 30V29C13.9989 28.6057 14.0758 28.2152 14.2262 27.8507C14.3766 27.4862 14.5975 27.1551 14.8763 26.8763C15.1551 26.5975 15.4862 26.3766 15.8507 26.2262C16.2152 26.0758 16.6057 25.9989 17 26H31ZM6 19C6 22.174 8.412 25.424 12.63 26.568C13.0635 25.7894 13.6972 25.1407 14.4655 24.6892C15.2338 24.2377 16.1088 23.9998 17 24H18.9C18.1419 23.2986 17.5373 22.4478 17.1243 21.5012C16.7112 20.5546 16.4987 19.5328 16.5 18.5C16.5 17.236 16.812 16.044 17.366 15H9C8.20435 15 7.44129 15.3161 6.87868 15.8787C6.31607 16.4413 6 17.2044 6 18V19ZM21.5 7.5C21.5 6.04131 20.9205 4.64236 19.8891 3.61091C18.8576 2.57946 17.4587 2 16 2C14.5413 2 13.1424 2.57946 12.1109 3.61091C11.0795 4.64236 10.5 6.04131 10.5 7.5C10.5 8.95869 11.0795 10.3576 12.1109 11.3891C13.1424 12.4205 14.5413 13 16 13C17.4587 13 18.8576 12.4205 19.8891 11.3891C20.9205 10.3576 21.5 8.95869 21.5 7.5ZM37.5 7.5C37.5 6.04131 36.9205 4.64236 35.8891 3.61091C34.8576 2.57946 33.4587 2 32 2C30.5413 2 29.1424 2.57946 28.1109 3.61091C27.0795 4.64236 26.5 6.04131 26.5 7.5C26.5 8.95869 27.0795 10.3576 28.1109 11.3891C29.1424 12.4205 30.5413 13 32 13C33.4587 13 34.8576 12.4205 35.8891 11.3891C36.9205 10.3576 37.5 8.95869 37.5 7.5Z" fill="#072AC8"/>
</g>
<defs>
<clipPath id="clip0_942_6358">
<rect width="40" height="40" fill="white" transform="translate(0.5 0.5)"/>
</clipPath>
</defs>
</svg>
