<svg width="41" height="41" viewBox="0 0 41 41" fill="none" xmlns="http://www.w3.org/2000/svg">
<g clip-path="url(#clip0_942_6333)">
<rect x="0.5" y="17.1667" width="23.3333" height="23.3333" fill="#7595FD"/>
<g clip-path="url(#clip1_942_6333)">
<path fill-rule="evenodd" clip-rule="evenodd" d="M34.9048 26.0811H23.0958C24.4358 25.9475 25.6782 25.2408 26.565 24.108C27.4518 22.9752 27.9147 21.5033 27.8577 19.9981C27.8006 18.493 27.228 17.0703 26.2586 16.0257C25.2893 14.9811 23.9979 14.3949 22.6527 14.3889H18.7952C19.3719 13.5204 19.7844 12.5294 20.0074 11.4763C20.2305 10.4232 20.2594 9.33031 20.0924 8.26431C19.9254 7.19831 19.566 6.18166 19.0362 5.27651C18.5064 4.37136 17.8173 3.59674 17.0111 3L34.9048 3C35.7261 3.00136 36.5134 3.3677 37.0937 4.01857C37.674 4.66945 38 5.55164 38 6.47143V22.6174C38 24.5306 36.6131 26.0837 34.9048 26.0837V26.0811ZM13.0824 14.394C13.6478 14.4087 14.2101 14.2967 14.7363 14.0646C15.2625 13.8325 15.7419 13.4849 16.1465 13.0423C16.551 12.5997 16.8724 12.071 17.0919 11.4873C17.3113 10.9036 17.4244 10.2766 17.4244 9.64329C17.4244 9.00994 17.3113 8.38299 17.0919 7.79927C16.8724 7.21556 16.551 6.68686 16.1465 6.24426C15.7419 5.80166 15.2625 5.45408 14.7363 5.22195C14.2101 4.98983 13.6478 4.87784 13.0824 4.89257C11.9745 4.92144 10.9205 5.43464 10.146 6.32242C9.37151 7.21021 8.9379 8.40212 8.9379 9.64329C8.9379 10.8845 9.37151 12.0764 10.146 12.9641C10.9205 13.8519 11.9745 14.3651 13.0824 14.394ZM25.0108 20.2466C25.0108 18.786 23.9546 17.6031 22.6527 17.6031H13.0847C12.2856 17.6028 11.4942 17.7788 10.7559 18.1212C10.0175 18.4635 9.34658 18.9654 8.7815 19.5982C8.21643 20.2311 7.76824 20.9824 7.46256 21.8093C7.15688 22.6362 6.9997 23.5225 7 24.4174V27.516C7 28.884 7.99193 29.9923 9.21347 29.9923H9.6084L10.2559 36.7037C10.3165 37.3339 10.5827 37.9168 11.0035 38.3406C11.4243 38.7644 11.97 38.9992 12.536 39H13.6886C14.2425 38.9997 14.7777 38.7752 15.1954 38.3679C15.6132 37.9605 15.8853 37.3978 15.9618 36.7834L17.6908 22.8874H22.6504C23.9523 22.8874 25.0085 21.7046 25.0085 20.2466H25.0108Z" fill="#072AC8"/>
</g>
</g>
<defs>
<clipPath id="clip0_942_6333">
<rect width="40" height="40" fill="white" transform="translate(0.5 0.5)"/>
</clipPath>
<clipPath id="clip1_942_6333">
<rect width="40" height="40" fill="white" transform="translate(0 1)"/>
</clipPath>
</defs>
</svg>
