<svg width="40" height="41" viewBox="0 0 40 41" fill="none" xmlns="http://www.w3.org/2000/svg">
<g id="ep:lock">
<path id="Vector" d="M8.75 18C8.41848 18 8.10054 18.1317 7.86612 18.3661C7.6317 18.6005 7.5 18.9185 7.5 19.25V34.25C7.5 34.5815 7.6317 34.8995 7.86612 35.1339C8.10054 35.3683 8.41848 35.5 8.75 35.5H31.25C31.5815 35.5 31.8995 35.3683 32.1339 35.1339C32.3683 34.8995 32.5 34.5815 32.5 34.25V19.25C32.5 18.9185 32.3683 18.6005 32.1339 18.3661C31.8995 18.1317 31.5815 18 31.25 18H8.75ZM8.75 15.5H31.25C32.2446 15.5 33.1984 15.8951 33.9017 16.5983C34.6049 17.3016 35 18.2554 35 19.25V34.25C35 35.2446 34.6049 36.1984 33.9017 36.9017C33.1984 37.6049 32.2446 38 31.25 38H8.75C7.75544 38 6.80161 37.6049 6.09835 36.9017C5.39509 36.1984 5 35.2446 5 34.25V19.25C5 18.2554 5.39509 17.3016 6.09835 16.5983C6.80161 15.8951 7.75544 15.5 8.75 15.5Z" fill="#848484"/>
<path id="Vector_2" d="M20 21.75C20.3315 21.75 20.6495 21.8817 20.8839 22.1161C21.1183 22.3505 21.25 22.6685 21.25 23V30.5C21.25 30.8315 21.1183 31.1495 20.8839 31.3839C20.6495 31.6183 20.3315 31.75 20 31.75C19.6685 31.75 19.3505 31.6183 19.1161 31.3839C18.8817 31.1495 18.75 30.8315 18.75 30.5V23C18.75 22.6685 18.8817 22.3505 19.1161 22.1161C19.3505 21.8817 19.6685 21.75 20 21.75ZM27.5 15.5V13C27.5 11.0109 26.7098 9.10322 25.3033 7.6967C23.8968 6.29018 21.9891 5.5 20 5.5C18.0109 5.5 16.1032 6.29018 14.6967 7.6967C13.2902 9.10322 12.5 11.0109 12.5 13V15.5H27.5ZM20 3C22.6522 3 25.1957 4.05357 27.0711 5.92893C28.9464 7.8043 30 10.3478 30 13V18H10V13C10 10.3478 11.0536 7.8043 12.9289 5.92893C14.8043 4.05357 17.3478 3 20 3Z" fill="#848484"/>
</g>
</svg>
