<svg width="48" height="48" viewBox="0 0 48 48" fill="none" xmlns="http://www.w3.org/2000/svg">
<g id="fluent:person-money-20-regular">
<path id="Vector" d="M24.0002 4.80078C21.4541 4.80078 19.0123 5.81221 17.212 7.61256C15.4116 9.41291 14.4002 11.8547 14.4002 14.4008C14.4002 16.9469 15.4116 19.3887 17.212 21.189C19.0123 22.9894 21.4541 24.0008 24.0002 24.0008C26.5463 24.0008 28.9881 22.9894 30.7884 21.189C32.5888 19.3887 33.6002 16.9469 33.6002 14.4008C33.6002 11.8547 32.5888 9.41291 30.7884 7.61256C28.9881 5.81221 26.5463 4.80078 24.0002 4.80078ZM16.8002 14.4008C16.8002 12.4912 17.5588 10.6599 18.909 9.30961C20.2593 7.95935 22.0906 7.20078 24.0002 7.20078C25.9098 7.20078 27.7411 7.95935 29.0914 9.30961C30.4416 10.6599 31.2002 12.4912 31.2002 14.4008C31.2002 16.3103 30.4416 18.1417 29.0914 19.492C27.7411 20.8422 25.9098 21.6008 24.0002 21.6008C22.0906 21.6008 20.2593 20.8422 18.909 19.492C17.5588 18.1417 16.8002 16.3103 16.8002 14.4008ZM12.0218 26.4008C11.3897 26.3983 10.7634 26.5205 10.1787 26.7606C9.59394 27.0006 9.06237 27.3538 8.61442 27.7997C8.16647 28.2457 7.81096 28.7756 7.56827 29.3593C7.32559 29.9429 7.20051 30.5687 7.2002 31.2008C7.2002 35.2592 9.1994 38.3192 12.3242 40.3136C14.8394 41.9168 18.0722 42.8288 21.6002 43.1048V40.6976C18.437 40.424 15.677 39.6008 13.6154 38.2856C11.0954 36.68 9.6002 34.3448 9.6002 31.2008C9.6002 29.8736 10.6754 28.8008 12.0218 28.8008H40.157C39.7357 28.0711 39.1298 27.4652 38.4001 27.0439C37.6705 26.6226 36.8428 26.4008 36.0002 26.4008H12.0218ZM45.6002 34.8008V42.0008C45.6002 42.9556 45.2209 43.8712 44.5458 44.5464C43.8706 45.2215 42.955 45.6008 42.0002 45.6008H27.6002C26.6454 45.6008 25.7297 45.2215 25.0546 44.5464C24.3795 43.8712 24.0002 42.9556 24.0002 42.0008V34.8008C24.0002 33.846 24.3795 32.9303 25.0546 32.2552C25.7297 31.5801 26.6454 31.2008 27.6002 31.2008H42.0002C42.955 31.2008 43.8706 31.5801 44.5458 32.2552C45.2209 32.9303 45.6002 33.846 45.6002 34.8008ZM43.2002 42.0008V39.6008C42.2454 39.6008 41.3297 39.9801 40.6546 40.6552C39.9795 41.3303 39.6002 42.246 39.6002 43.2008H42.0002C42.0002 42.8825 42.1266 42.5773 42.3517 42.3522C42.5767 42.1272 42.8819 42.0008 43.2002 42.0008ZM43.2002 34.8008C42.8819 34.8008 42.5767 34.6744 42.3517 34.4493C42.1266 34.2243 42.0002 33.919 42.0002 33.6008H39.6002C39.6002 34.5556 39.9795 35.4712 40.6546 36.1464C41.3297 36.8215 42.2454 37.2008 43.2002 37.2008V34.8008ZM27.6002 33.6008C27.6002 33.919 27.4738 34.2243 27.2487 34.4493C27.0237 34.6744 26.7185 34.8008 26.4002 34.8008V37.2008C27.355 37.2008 28.2707 36.8215 28.9458 36.1464C29.6209 35.4712 30.0002 34.5556 30.0002 33.6008H27.6002ZM26.4002 42.0008C26.7185 42.0008 27.0237 42.1272 27.2487 42.3522C27.4738 42.5773 27.6002 42.8825 27.6002 43.2008H30.0002C30.0002 42.246 29.6209 41.3303 28.9458 40.6552C28.2707 39.9801 27.355 39.6008 26.4002 39.6008V42.0008ZM34.8002 34.8008C33.8454 34.8008 32.9297 35.1801 32.2546 35.8552C31.5795 36.5303 31.2002 37.446 31.2002 38.4008C31.2002 39.3556 31.5795 40.2712 32.2546 40.9464C32.9297 41.6215 33.8454 42.0008 34.8002 42.0008C35.755 42.0008 36.6707 41.6215 37.3458 40.9464C38.0209 40.2712 38.4002 39.3556 38.4002 38.4008C38.4002 37.446 38.0209 36.5303 37.3458 35.8552C36.6707 35.1801 35.755 34.8008 34.8002 34.8008Z" fill="#626262"/>
</g>
</svg>
