<svg width="48" height="49" viewBox="0 0 48 49" fill="none" xmlns="http://www.w3.org/2000/svg">
<g id="fluent-emoji-flat:waving-hand">
<g id="Group">
<path id="Vector" d="M30.8896 11.3786C32.7136 15.4001 34.9531 20.3366 36.6331 22.2986C36.9616 21.5351 36.9256 20.2586 37.3006 17.1416C37.6396 14.3261 39.9616 14.0591 40.9576 14.2586C43.1596 14.7176 43.8316 16.9511 43.7581 17.7746C43.6411 19.0871 43.6351 19.0421 43.3951 22.2146C43.0426 26.8556 44.8351 30.3596 45.0001 34.3331C45.0001 41.8211 38.4376 45.5006 33.8446 45.5006C30.1696 45.5006 26.4931 43.1486 25.1146 41.9726L18.2221 35.6801C17.3791 35.0246 15.2941 32.8601 14.3791 31.6151C11.8846 28.2206 15.4921 25.8836 17.5201 26.4701C17.3596 26.3471 16.3981 24.7856 15.9376 24.0206C14.7001 21.5351 15.9376 19.8806 16.8526 19.4261C18.9256 18.3956 20.4496 19.5551 20.9296 20.1881C20.7466 19.8761 20.1706 18.6131 19.2421 16.2971C18.3136 13.9826 19.8091 12.5516 20.6716 12.1256C22.5466 11.2586 24.3286 12.3596 24.7741 13.3451C24.9916 13.8251 26.1691 16.4021 26.6791 17.5391C26.2936 16.5971 25.5946 14.7251 25.3471 13.8596C24.8551 11.8196 26.0386 10.4231 26.7886 10.0631C27.8326 9.56358 30.0076 9.43308 30.8686 11.3291L30.8896 11.3786Z" fill="#FFC83D"/>
<path id="Vector_2" d="M26.6736 10.8724C26.8326 10.3624 27.0501 10.0534 27.2151 9.90039C27.0591 9.94539 26.9151 10.0024 26.7891 10.0624C26.0391 10.4224 24.8556 11.8204 25.3491 13.8589C25.5951 14.7244 26.2941 16.5964 26.6811 17.5384L26.4951 17.1274C27.3411 19.0699 28.3956 21.1624 29.1906 22.5124C29.2914 22.6839 29.4563 22.8082 29.6488 22.8582C29.8414 22.9081 30.0459 22.8795 30.2173 22.7786C30.3888 22.6778 30.5132 22.513 30.5631 22.3204C30.613 22.1279 30.5844 21.9234 30.4836 21.7519C29.1936 19.5604 27.2316 15.3994 26.6691 13.3339C26.4401 12.5297 26.4416 11.6758 26.6736 10.8724ZM15.9381 24.0199C16.2861 24.5989 16.9206 25.6324 17.2791 26.1544C17.7531 26.7244 18.2721 27.2719 18.7971 27.7924C19.3971 28.3849 20.0196 28.9579 20.6091 29.5009L20.6586 29.5459C21.2676 30.1069 21.8361 30.6334 22.3296 31.1329C22.3988 31.203 22.4812 31.2588 22.572 31.2971C22.6628 31.3354 22.7603 31.3554 22.8588 31.3561C22.9573 31.3567 23.0551 31.3379 23.1463 31.3008C23.2376 31.2636 23.3207 31.2089 23.3908 31.1396C23.4609 31.0704 23.5168 30.988 23.555 30.8972C23.5933 30.8064 23.6134 30.709 23.614 30.6104C23.6146 30.5119 23.5958 30.4142 23.5587 30.3229C23.5216 30.2316 23.4668 30.1485 23.3976 30.0784C22.8741 29.5489 22.2786 28.9984 21.6741 28.4434L21.6321 28.4044C21.0381 27.8569 20.4321 27.2989 19.8531 26.7244C18.6561 25.5394 17.6331 24.3484 17.0901 23.1469C16.7046 22.2979 16.6101 21.3034 16.7151 20.4814C16.7519 20.1427 16.841 19.8118 16.9791 19.5004C17.0083 19.4378 17.0424 19.3776 17.0811 19.3204C17.0061 19.3519 16.9296 19.3879 16.8516 19.4254C15.9381 19.8799 14.7006 21.5344 15.9381 24.0199ZM20.8251 12.0589C20.6646 12.1669 20.4456 12.4279 20.3061 12.9349C20.1486 13.5064 20.1261 14.3104 20.3886 15.2794C20.7696 16.6834 21.7266 18.5674 22.8201 20.4124C23.7667 22.0006 24.7848 23.5452 25.8711 25.0414C25.9322 25.1207 25.9768 25.2114 26.0023 25.3082C26.0279 25.405 26.0337 25.5059 26.0196 25.605C26.0055 25.7041 25.9717 25.7994 25.9202 25.8852C25.8687 25.971 25.8006 26.0457 25.7198 26.1048C25.639 26.1639 25.5471 26.2062 25.4497 26.2292C25.3523 26.2522 25.2513 26.2555 25.1526 26.2389C25.0538 26.2223 24.9595 26.1861 24.875 26.1324C24.7905 26.0787 24.7176 26.0087 24.6606 25.9264C23.5459 24.3915 22.5014 22.8068 21.5301 21.1774C21.2301 20.6734 20.9361 20.1574 20.6571 19.6414C20.1579 18.5383 19.6863 17.423 19.2426 16.2964C18.3141 13.9819 19.8096 12.5509 20.6721 12.1264C20.7231 12.1009 20.7741 12.0799 20.8251 12.0589ZM37.0146 19.9159C36.9051 21.1069 36.8421 21.7879 36.6471 22.2649C36.6351 22.4149 36.6246 22.5499 36.6126 22.6744C36.5947 22.8725 36.6562 23.0696 36.7836 23.2224C36.9111 23.3751 37.094 23.471 37.2921 23.4889C37.4902 23.5068 37.6873 23.4453 37.8401 23.3178C37.9928 23.1904 38.0887 23.0075 38.1066 22.8094C38.1291 22.5649 38.1516 22.2799 38.1741 21.9589C38.2626 20.7694 38.3871 19.0729 38.7546 16.9399C38.9076 16.0549 39.3051 15.2869 39.7596 14.7859C40.1121 14.4004 40.4151 14.2519 40.6236 14.2144C39.5181 14.1364 37.6056 14.6059 37.3011 17.1394C37.1915 18.0629 37.096 18.988 37.0146 19.9144" fill="#D67D00"/>
<path id="Vector_3" d="M36.0576 11.8356C36.0583 11.9341 36.0784 12.0315 36.1167 12.1222C36.155 12.213 36.2109 12.2952 36.281 12.3644C36.3511 12.4336 36.4342 12.4882 36.5255 12.5253C36.6167 12.5623 36.7144 12.581 36.8129 12.5804C36.9114 12.5797 37.0088 12.5596 37.0995 12.5213C37.1902 12.4829 37.2725 12.4271 37.3417 12.357C37.4108 12.2868 37.4655 12.2038 37.5025 12.1125C37.5396 12.0213 37.5583 11.9236 37.5576 11.8251C37.5351 8.38261 34.9176 3.59311 29.2926 3.62911C29.0937 3.6305 28.9035 3.71085 28.7638 3.85249C28.6242 3.99413 28.5465 4.18545 28.5479 4.38436C28.5493 4.58327 28.6296 4.77348 28.7713 4.91315C28.9129 5.05282 29.1042 5.1305 29.3031 5.12911C33.8511 5.09911 36.0381 8.95111 36.0576 11.8356Z" fill="#5092FF"/>
<path id="Vector_4" d="M34.3155 15.4791C34.1168 15.4803 33.9258 15.4027 33.7844 15.2632C33.6429 15.1237 33.5626 14.9338 33.561 14.7351C33.552 13.3701 32.9895 11.5551 31.7955 10.0926C30.6195 8.65265 28.845 7.56965 26.3655 7.58615C26.1666 7.58754 25.9753 7.50986 25.8336 7.37019C25.692 7.23052 25.6116 7.04031 25.6102 6.8414C25.6089 6.64249 25.6865 6.45117 25.8262 6.30953C25.9659 6.16789 26.1561 6.08754 26.355 6.08615C29.337 6.06665 31.527 7.39415 32.9565 9.14315C34.3665 10.8696 35.049 13.0176 35.061 14.7246C35.0616 14.8231 35.0428 14.9208 35.0056 15.012C34.9685 15.1032 34.9137 15.1862 34.8445 15.2563C34.7753 15.3264 34.6929 15.3821 34.6022 15.4203C34.5114 15.4586 34.414 15.4786 34.3155 15.4791ZM7.3125 26.9151C7.3125 26.7162 7.23348 26.5255 7.09283 26.3848C6.95218 26.2442 6.76141 26.1651 6.5625 26.1651C6.36359 26.1651 6.17282 26.2442 6.03217 26.3848C5.89152 26.5255 5.8125 26.7162 5.8125 26.9151C5.8125 28.6206 6.48 30.7732 7.8795 32.5102C9.2985 34.2682 11.4795 35.6091 14.4615 35.6091C14.6604 35.6091 14.8512 35.5301 14.9918 35.3895C15.1325 35.2488 15.2115 35.0581 15.2115 34.8591C15.2115 34.6602 15.1325 34.4695 14.9918 34.3288C14.8512 34.1882 14.6604 34.1091 14.4615 34.1091C11.982 34.1091 10.2135 33.0142 9.0465 31.5681C7.863 30.0982 7.3125 28.2771 7.3125 26.9136" fill="#5092FF"/>
<path id="Vector_5" d="M4.79883 29.7969C4.79883 29.598 4.71981 29.4072 4.57916 29.2665C4.43851 29.1259 4.24774 29.0469 4.04883 29.0469C3.84992 29.0469 3.65915 29.1259 3.5185 29.2665C3.37785 29.4072 3.29883 29.598 3.29883 29.7969C3.29883 33.2394 5.88333 38.0469 11.5083 38.0469C11.7072 38.0469 11.898 37.9679 12.0387 37.8272C12.1793 37.6866 12.2583 37.4958 12.2583 37.2969C12.2583 37.098 12.1793 36.9072 12.0387 36.7665C11.898 36.6259 11.7072 36.5469 11.5083 36.5469C6.96033 36.5469 4.79883 32.6829 4.79883 29.7969Z" fill="#5092FF"/>
</g>
</g>
</svg>
