<svg width="24" height="24" viewBox="0 0 24 24" fill="none" xmlns="http://www.w3.org/2000/svg">
<g id="job-search 2" clip-path="url(#clip0_942_7525)">
<g id="Group">
<g id="Group_2">
<path id="Vector" d="M23.6 6.4C23.84 6.4 24 6.24 24 6V0.4C24 0.16 23.84 0 23.6 0H14.8C14.56 0 14.4 0.16 14.4 0.4V2.8H9.6V0.4C9.6 0.16 9.44 0 9.2 0H0.4C0.16 0 0 0.16 0 0.4V6C0 6.24 0.16 6.4 0.4 6.4H4V8.4H0.4C0.16 8.4 0 8.56 0 8.8V14.4C0 14.64 0.16 14.8 0.4 14.8H7.6V14H0.8V9.2H9.2V8.4H4.8V6.4H9.2C9.44 6.4 9.6 6.24 9.6 6V3.6H14.4V6C14.4 6.24 14.56 6.4 14.8 6.4H18.8V8.4H14.8V9.2H23.2V14H16.4V14.8H23.6C23.84 14.8 24 14.64 24 14.4V8.8C24 8.56 23.84 8.4 23.6 8.4H19.6V6.4H23.6ZM8.8 5.6H0.8V0.8H8.8V5.6ZM15.2 0.8H23.2V5.6H15.2V0.8Z" fill="#072AC8" fill-opacity="0.78"/>
<path id="Vector_2" d="M14.0002 15.5996H10.0002C8.4402 15.5996 7.2002 16.8396 7.2002 18.3996V23.9996H8.0002V18.3996C8.0002 17.2796 8.8802 16.3996 10.0002 16.3996H10.5202L11.6402 19.3596C11.6802 19.4796 11.8402 19.5996 12.0002 19.5996C12.1602 19.5996 12.3202 19.4796 12.4402 19.3596L13.5602 16.3996H14.0002C15.1202 16.3996 16.0002 17.2796 16.0002 18.3996V23.9996H16.8002V18.3996C16.8002 16.8396 15.5602 15.5996 14.0002 15.5996ZM12.0402 18.0796L11.4002 16.3996H12.6802L12.0402 18.0796Z" fill="#072AC8" fill-opacity="0.78"/>
<path id="Vector_3" d="M12.4001 20.4004H11.6001V21.2004H12.4001V20.4004Z" fill="#072AC8" fill-opacity="0.78"/>
<path id="Vector_4" d="M12.4001 22H11.6001V22.8H12.4001V22Z" fill="#072AC8" fill-opacity="0.78"/>
<path id="Vector_5" d="M11.6001 15.2H12.4001C13.5201 15.2 14.4001 14.32 14.4001 13.2V12C14.4001 10.88 13.5201 10 12.4001 10H11.6001C10.4801 10 9.6001 10.88 9.6001 12V13.2C9.6001 14.32 10.4801 15.2 11.6001 15.2ZM10.4001 12C10.4001 11.32 10.9201 10.8 11.6001 10.8H12.4001C13.0801 10.8 13.6001 11.32 13.6001 12V13.2C13.6001 13.88 13.0801 14.4 12.4001 14.4H11.6001C10.9201 14.4 10.4001 13.88 10.4001 13.2V12Z" fill="#072AC8" fill-opacity="0.78"/>
<path id="Vector_6" d="M10.0002 19.5996H9.2002V23.9996H10.0002V19.5996Z" fill="#072AC8" fill-opacity="0.78"/>
<path id="Vector_7" d="M14.8 19.5996H14V23.9996H14.8V19.5996Z" fill="#072AC8" fill-opacity="0.78"/>
<path id="Vector_8" d="M6 2H2V2.8H6V2Z" fill="#072AC8" fill-opacity="0.78"/>
<path id="Vector_9" d="M7.6 3.59961H2V4.39961H7.6V3.59961Z" fill="#072AC8" fill-opacity="0.78"/>
<path id="Vector_10" d="M20.3999 10.4004H16.3999V11.2004H20.3999V10.4004Z" fill="#072AC8" fill-opacity="0.78"/>
<path id="Vector_11" d="M21.6 12H16V12.8H21.6V12Z" fill="#072AC8" fill-opacity="0.78"/>
<path id="Vector_12" d="M17.1999 2H16.3999V2.8H17.1999V2Z" fill="#072AC8" fill-opacity="0.78"/>
<path id="Vector_13" d="M18.8 2H18V2.8H18.8V2Z" fill="#072AC8" fill-opacity="0.78"/>
<path id="Vector_14" d="M20.4001 2H19.6001V2.8H20.4001V2Z" fill="#072AC8" fill-opacity="0.78"/>
<path id="Vector_15" d="M22.0002 2H21.2002V2.8H22.0002V2Z" fill="#072AC8" fill-opacity="0.78"/>
<path id="Vector_16" d="M17.1999 3.59961H16.3999V4.39961H17.1999V3.59961Z" fill="#072AC8" fill-opacity="0.78"/>
<path id="Vector_17" d="M18.8 3.59961H18V4.39961H18.8V3.59961Z" fill="#072AC8" fill-opacity="0.78"/>
<path id="Vector_18" d="M20.4001 3.59961H19.6001V4.39961H20.4001V3.59961Z" fill="#072AC8" fill-opacity="0.78"/>
<path id="Vector_19" d="M22.0002 3.59961H21.2002V4.39961H22.0002V3.59961Z" fill="#072AC8" fill-opacity="0.78"/>
<path id="Vector_20" d="M2.8 10.4004H2V11.2004H2.8V10.4004Z" fill="#072AC8" fill-opacity="0.78"/>
<path id="Vector_21" d="M4.4001 10.4004H3.6001V11.2004H4.4001V10.4004Z" fill="#072AC8" fill-opacity="0.78"/>
<path id="Vector_22" d="M6.0002 10.4004H5.2002V11.2004H6.0002V10.4004Z" fill="#072AC8" fill-opacity="0.78"/>
<path id="Vector_23" d="M7.5998 10.4004H6.7998V11.2004H7.5998V10.4004Z" fill="#072AC8" fill-opacity="0.78"/>
<path id="Vector_24" d="M2.8 12H2V12.8H2.8V12Z" fill="#072AC8" fill-opacity="0.78"/>
<path id="Vector_25" d="M4.4001 12H3.6001V12.8H4.4001V12Z" fill="#072AC8" fill-opacity="0.78"/>
<path id="Vector_26" d="M6.0002 12H5.2002V12.8H6.0002V12Z" fill="#072AC8" fill-opacity="0.78"/>
<path id="Vector_27" d="M7.5998 12H6.7998V12.8H7.5998V12Z" fill="#072AC8" fill-opacity="0.78"/>
</g>
</g>
</g>
<defs>
<clipPath id="clip0_942_7525">
<rect width="24" height="24" fill="white"/>
</clipPath>
</defs>
</svg>
