<svg width="20" height="20" viewBox="0 0 20 20" fill="none" xmlns="http://www.w3.org/2000/svg">
<g id="heart">
<path id="Vector" d="M10.0004 6.04253L9.64642 5.68854L8.95977 5.0019C8.21347 4.2557 7.20131 3.83652 6.14596 3.83659C5.0906 3.83666 4.0785 4.25597 3.3323 5.00227C2.5861 5.74857 2.16692 6.76073 2.16699 7.81608C2.16706 8.87144 2.58637 9.88354 3.33267 10.6297L3.33269 10.6298L9.91164 17.2087L10.0004 6.04253ZM10.0004 6.04253L10.354 5.68811M10.0004 6.04253L10.354 5.68811M10.354 5.68811L11.037 5.00342M10.354 5.68811L11.037 5.00342M11.037 5.00342C11.037 5.00339 11.037 5.00336 11.0371 5.00333M11.037 5.00342L11.0371 5.00333M11.0371 5.00333C11.4073 4.63292 11.8465 4.3386 12.3296 4.13843C12.813 3.93808 13.3312 3.83496 13.8546 3.83496C14.3779 3.83496 14.8961 3.93808 15.3795 4.13843C15.863 4.33877 16.3022 4.63242 16.6721 5.00258C17.4177 5.74876 17.8367 6.76043 17.8368 7.8153C17.8369 8.87012 17.4183 9.88185 16.673 10.6282C16.6729 10.6283 16.6729 10.6283 16.6729 10.6283L10.0883 17.2087C10.0649 17.2321 10.0331 17.2453 9.99997 17.2453C9.96695 17.2453 9.93527 17.2322 9.91186 17.2089L11.0371 5.00333ZM16.4935 10.4536L16.5 10.447L16.5064 10.4402C17.1643 9.73158 17.5205 8.79567 17.5023 7.82961C17.484 6.86321 17.0917 5.94154 16.4078 5.25851C15.7239 4.57547 14.8017 4.18431 13.8353 4.1673C12.8688 4.1503 11.9335 4.50878 11.226 5.16733L11.2187 5.17413L11.2116 5.18122L10.1 6.30206L10.0999 6.30199L10.0934 6.30881C10.0819 6.32086 10.0681 6.33048 10.0528 6.33712C10.0375 6.34376 10.0211 6.34728 10.0044 6.34746C9.98774 6.34765 9.97121 6.3445 9.95578 6.33821L9.76689 6.80115L9.95578 6.33821C9.94035 6.33191 9.92634 6.3226 9.91456 6.31081L9.91423 6.31047L8.78457 5.18165C8.78422 5.1813 8.78387 5.18095 8.78352 5.1806C8.43813 4.83179 8.02726 4.55459 7.57448 4.36493C7.12125 4.17507 6.63496 4.07666 6.14357 4.07535C5.65219 4.07405 5.16538 4.16987 4.71115 4.35731C4.25691 4.54475 3.8442 4.82012 3.49674 5.16759C3.14927 5.51505 2.8739 5.92776 2.68646 6.382C2.49902 6.83624 2.40319 7.32304 2.4045 7.81443C2.40581 8.30581 2.50422 8.7921 2.69408 9.24533C2.88375 9.69814 3.16097 10.109 3.50981 10.4544C3.51014 10.4548 3.51047 10.4551 3.5108 10.4554L9.64642 16.591L9.9999 16.9445L10.3535 16.5911L16.4935 10.4536Z" stroke="#848484"/>
</g>
</svg>
