<svg width="16" height="20" viewBox="0 0 16 20" fill="none" xmlns="http://www.w3.org/2000/svg">
<g id="Vector">
<path id="Vector_2" d="M14.0952 7.39906V6.25648C14.0952 4.63954 13.4531 3.08941 12.31 1.94682C11.1669 0.803293 9.61656 0.161407 8 0.161407C6.38344 0.161407 4.83313 0.803293 3.68998 1.94682C2.54692 3.08941 1.90475 4.63954 1.90475 6.25648V7.39906H0V11.8386C0 16.2499 3.5888 19.8386 8 19.8386C12.4112 19.8386 16 16.2499 16 11.8386V7.39906H14.0952ZM3.42861 6.25648C3.42861 5.04424 3.91021 3.88095 4.76753 3.02354C5.62485 2.16707 6.78758 1.68519 8 1.68519C9.21242 1.68519 10.3752 2.16707 11.2325 3.02354C12.0898 3.88095 12.5714 5.04424 12.5714 6.25648V7.39906H3.42861V6.25648ZM14.4762 11.8386C14.4762 15.4094 11.5709 18.3148 8 18.3148C4.42908 18.3148 1.52376 15.4094 1.52376 11.8386V8.92284H14.4762V11.8386Z" fill="#626262"/>
</g>
</svg>
