<svg width="82" height="83" viewBox="0 0 82 83" fill="none" xmlns="http://www.w3.org/2000/svg">
<g id="Mastercard logo" clip-path="url(#clip0_1287_16150)">
<g id="XMLID_1_">
<path id="XMLID_2_" d="M14.9273 73.1645V68.9428C14.9273 67.3252 13.9391 66.2698 12.2543 66.2698C11.4006 66.2698 10.5021 66.5613 9.85031 67.4597C9.35543 66.6958 8.66035 66.2698 7.60492 66.2698C6.90824 66.2698 6.19074 66.4716 5.62859 67.2579V66.4043H4.16797V73.1645H5.65102V69.4361C5.65102 68.2461 6.28043 67.684 7.26859 67.684C8.25676 67.684 8.75164 68.3134 8.75164 69.4361V73.1645H10.2347V69.4361C10.2347 68.2461 10.9314 67.684 11.8523 67.684C12.8404 67.684 13.3353 68.3134 13.3353 69.4361V73.1645H14.9273ZM36.8254 66.4043H34.4215V64.3607H32.9384V66.4043H31.5915V67.7512H32.9384V70.8503C32.9384 72.4006 33.5679 73.3215 35.2511 73.3215C35.8805 73.3215 36.598 73.1197 37.0705 72.8266L36.6445 71.5694C36.2184 71.8608 35.7236 71.9281 35.3872 71.9281C34.6905 71.9281 34.3991 71.5021 34.3991 70.8054V67.7736H36.803V66.4043H36.8254ZM49.3352 66.2698C48.4816 66.2698 47.9211 66.6958 47.5831 67.2579V66.4043H46.1001V73.1645H47.5831V69.3688C47.5831 68.2461 48.078 67.6167 48.9973 67.6167C49.2888 67.6167 49.6267 67.684 49.9182 67.7512L50.3442 66.337C50.0543 66.2698 49.6267 66.2698 49.3352 66.2698ZM30.4016 66.9665C29.7049 66.4716 28.7167 66.2698 27.6613 66.2698C25.9764 66.2698 24.8538 67.1234 24.8538 68.4479C24.8538 69.5706 25.7074 70.2 27.1664 70.4242L27.8631 70.4915C28.627 70.626 29.053 70.8503 29.053 71.1882C29.053 71.6831 28.4909 72.0418 27.5027 72.0418C26.5146 72.0418 25.7506 71.6831 25.2573 71.3451L24.5607 72.4678C25.3246 73.03 26.38 73.3215 27.4355 73.3215C29.4118 73.3215 30.5345 72.4006 30.5345 71.1433C30.5345 69.9534 29.6136 69.324 28.2218 69.0997L27.5252 69.0325C26.8957 68.9652 26.4025 68.8307 26.4025 68.4031C26.4025 67.9082 26.8973 67.6391 27.6597 67.6391C28.5133 67.6391 29.3445 67.9979 29.7705 68.2013L30.4016 66.9665ZM69.6831 66.2698C68.8295 66.2698 68.2689 66.6958 67.931 67.2579V66.4043H66.4479V73.1645H67.931V69.3688C67.931 68.2461 68.4259 67.6167 69.3452 67.6167C69.6366 67.6167 69.9746 67.684 70.2661 67.7512L70.6921 66.337C70.3798 66.2698 69.9521 66.2698 69.6831 66.2698ZM50.8167 69.774C50.8167 71.8176 52.2309 73.3006 54.4106 73.3006C55.3988 73.3006 56.0954 73.0988 56.8145 72.5367L56.1179 71.3467C55.5557 71.7728 54.9952 71.9762 54.3657 71.9762C53.1758 71.9762 52.3222 71.1225 52.3222 69.798C52.3222 68.5408 53.1758 67.6872 54.3657 67.6199C54.9952 67.6199 55.5557 67.8217 56.1179 68.2493L56.8145 67.0594C56.1179 66.4972 55.4003 66.2954 54.4106 66.2954C52.2325 66.2698 50.8167 67.7528 50.8167 69.774ZM64.4732 69.774V66.4043H62.9902V67.2579C62.4953 66.6285 61.8002 66.2698 60.8793 66.2698C58.9702 66.2698 57.5096 67.7528 57.5096 69.7964C57.5096 71.84 58.9927 73.3231 60.8793 73.3231C61.8675 73.3231 62.5641 72.9643 62.9902 72.3349V73.1885H64.4732V69.774ZM59.0599 69.774C59.0599 68.584 59.8239 67.5959 61.1035 67.5959C62.2935 67.5959 63.1471 68.5168 63.1471 69.774C63.1471 70.964 62.2935 71.9521 61.1035 71.9521C59.8239 71.8849 59.0599 70.9864 59.0599 69.774ZM41.3835 66.2698C39.4071 66.2698 38.0138 67.684 38.0138 69.7964C38.0138 71.9073 39.428 73.3231 41.4732 73.3231C42.4613 73.3231 43.4495 73.0316 44.2134 72.4022L43.5168 71.3467C42.9546 71.7728 42.2595 72.0434 41.5404 72.0434C40.6195 72.0434 39.7211 71.6174 39.4968 70.4258H44.4825V69.8637C44.5514 67.6615 43.2925 66.2698 41.3835 66.2698ZM41.3835 67.527C42.3044 67.527 42.9338 68.0892 43.0683 69.1446H39.5417C39.7002 68.2461 40.328 67.527 41.3835 67.527ZM78.0609 69.774V63.7329H76.5778V67.2595C76.0829 66.6301 75.3879 66.2714 74.467 66.2714C72.5579 66.2714 71.0973 67.7544 71.0973 69.798C71.0973 71.8416 72.5803 73.3247 74.467 73.3247C75.4551 73.3247 76.1518 72.9659 76.5778 72.3365V73.1901H78.0609V69.774ZM72.6252 69.774C72.6252 68.584 73.3891 67.5959 74.6688 67.5959C75.8587 67.5959 76.7123 68.5168 76.7123 69.774C76.7123 70.964 75.8587 71.9521 74.6688 71.9521C73.4115 71.8849 72.6252 70.9864 72.6252 69.774ZM23.2362 69.774V66.4043H21.7531V67.2579C21.2582 66.6285 20.5632 66.2698 19.6423 66.2698C17.7332 66.2698 16.2726 67.7528 16.2726 69.7964C16.2726 71.84 17.7556 73.3231 19.6423 73.3231C20.6304 73.3231 21.3271 72.9643 21.7531 72.3349V73.1885H23.2362V69.774ZM17.7572 69.774C17.7572 68.584 18.5212 67.5959 19.8008 67.5959C20.9908 67.5959 21.8444 68.5168 21.8444 69.774C21.8444 70.964 20.9908 71.9521 19.8008 71.9521C18.5196 71.8849 17.7572 70.9864 17.7572 69.774Z" fill="black"/>
<path id="XMLID_17_" d="M52.0969 15.1062H29.9297V54.9275H52.0969V15.1062Z" fill="#FF5F00"/>
<path id="XMLID_18_" d="M31.3236 35.028C31.3236 26.9433 35.1193 19.7555 40.9586 15.1062C36.668 11.7365 31.2563 9.69287 25.3273 9.69287C11.3345 9.69287 -0.0078125 21.0127 -0.0078125 35.028C-0.0078125 49.0208 11.312 60.3631 25.3273 60.3631C31.2339 60.3631 36.6471 58.3195 40.9586 54.9498C35.1193 50.3678 31.3236 43.1143 31.3236 35.028Z" fill="#EB001B"/>
<path id="XMLID_19_" d="M81.9937 35.028C81.9937 49.0208 70.6739 60.3631 56.6586 60.3631C50.752 60.3631 45.3387 58.3195 41.0273 54.9498C46.9339 50.3005 50.6623 43.1367 50.6623 35.028C50.6623 26.9433 46.8666 19.7555 41.0273 15.1062C45.3179 11.7365 50.7296 9.69287 56.6586 9.69287C70.6739 9.69447 81.9937 21.0816 81.9937 35.028Z" fill="#F79E1B"/>
</g>
</g>
<defs>
<clipPath id="clip0_1287_16150">
<rect width="82" height="82" fill="white" transform="translate(0 0.5)"/>
</clipPath>
</defs>
</svg>
