<svg width="20" height="20" viewBox="0 0 20 20" fill="none" xmlns="http://www.w3.org/2000/svg">
<g id="fluent:share-16-regular">
<path id="Vector" d="M12.8837 2.6312C12.7914 2.55933 12.6807 2.51485 12.5642 2.50282C12.4478 2.49079 12.3304 2.51169 12.2252 2.56315C12.1201 2.61461 12.0315 2.69455 11.9696 2.79387C11.9077 2.89319 11.8749 3.0079 11.875 3.12495V5.6162C11.1569 5.64629 10.4483 5.79147 9.77625 6.0462C8.73423 6.44008 7.8259 7.12252 7.1575 8.0137C6.37875 9.0462 5.80625 10.4787 5.6275 12.4437C5.61566 12.5718 5.64362 12.7004 5.70756 12.8119C5.7715 12.9235 5.86831 13.0127 5.98478 13.0672C6.10125 13.1218 6.23171 13.1391 6.35837 13.1167C6.48502 13.0944 6.60171 13.0335 6.6925 12.9424C8.1775 11.4549 9.65375 10.7224 10.745 10.3587C11.195 10.2087 11.58 10.1212 11.875 10.0712V12.4999C11.875 12.6204 11.9098 12.7383 11.9752 12.8395C12.0406 12.9407 12.1339 13.0208 12.2437 13.0702C12.3536 13.1196 12.4755 13.1361 12.5945 13.1179C12.7136 13.0997 12.8249 13.0474 12.915 12.9674L18.54 7.96745C18.6087 7.90653 18.6631 7.83123 18.6994 7.74689C18.7357 7.66255 18.753 7.57125 18.75 7.47948C18.747 7.38771 18.7239 7.29773 18.6822 7.21593C18.6405 7.13413 18.5813 7.06252 18.5088 7.0062L12.8837 2.6312ZM12.4287 6.8712H12.4325C12.5197 6.88028 12.6078 6.87099 12.6912 6.84395C12.7745 6.8169 12.8513 6.77269 12.9165 6.71416C12.9818 6.65563 13.034 6.58409 13.0699 6.50413C13.1058 6.42418 13.1246 6.33759 13.125 6.24995V4.40245L17.1487 7.53245L13.125 11.1074V9.37495C13.125 9.20919 13.0592 9.05021 12.9419 8.933C12.8247 8.81579 12.6658 8.74995 12.5 8.74995H12.4437C12.253 8.75873 12.0628 8.77667 11.8737 8.8037C11.4987 8.8587 10.9738 8.9637 10.3488 9.17245C9.202 9.56194 8.12658 10.1362 7.165 10.8724C7.4075 9.97745 7.76 9.29245 8.15625 8.7662C8.68347 8.06232 9.40077 7.52369 10.2237 7.2137C10.8787 6.96633 11.5751 6.84709 12.275 6.86245C12.3312 6.8637 12.3737 6.8662 12.4 6.8687L12.4287 6.8712ZM5.625 3.74995C4.7962 3.74995 4.00134 4.07919 3.41529 4.66524C2.82924 5.25129 2.5 6.04614 2.5 6.87495V14.3749C2.5 15.2037 2.82924 15.9986 3.41529 16.5847C4.00134 17.1707 4.7962 17.4999 5.625 17.4999H13.125C13.9538 17.4999 14.7487 17.1707 15.3347 16.5847C15.9208 15.9986 16.25 15.2037 16.25 14.3749V13.1249C16.25 12.9592 16.1842 12.8002 16.0669 12.683C15.9497 12.5658 15.7908 12.4999 15.625 12.4999C15.4592 12.4999 15.3003 12.5658 15.1831 12.683C15.0658 12.8002 15 12.9592 15 13.1249V14.3749C15 14.8722 14.8025 15.3491 14.4508 15.7008C14.0992 16.0524 13.6223 16.2499 13.125 16.2499H5.625C5.12772 16.2499 4.65081 16.0524 4.29917 15.7008C3.94754 15.3491 3.75 14.8722 3.75 14.3749V6.87495C3.75 6.37766 3.94754 5.90075 4.29917 5.54912C4.65081 5.19749 5.12772 4.99995 5.625 4.99995H8.125C8.29076 4.99995 8.44973 4.9341 8.56694 4.81689C8.68415 4.69968 8.75 4.54071 8.75 4.37495C8.75 4.20919 8.68415 4.05021 8.56694 3.933C8.44973 3.81579 8.29076 3.74995 8.125 3.74995H5.625Z" fill="#848484"/>
</g>
</svg>
