<svg width="64" height="65" viewBox="0 0 64 65" fill="none" xmlns="http://www.w3.org/2000/svg">
<g id="teacher-svgrepo-com (1) 1" clip-path="url(#clip0_153_6136)">
<g id="Group">
<g id="Group_2">
<g id="Group_3">
<path id="Vector" d="M32 27.5743C39.4645 27.5743 45.5372 21.5016 45.5372 14.0371C45.5374 6.57271 39.4645 0.5 32 0.5C24.5356 0.5 18.4629 6.57271 18.4629 14.0371C18.4629 21.5018 24.5356 27.5743 32 27.5743ZM32 3.73232C37.6823 3.73232 42.3048 8.35508 42.3048 14.0371C42.3048 19.7192 37.6821 24.342 32 24.342C26.318 24.342 21.6952 19.7192 21.6952 14.0371C21.6952 8.35508 26.318 3.73232 32 3.73232Z" fill="#848484"/>
<path id="Vector_2" d="M54.6096 58.5152L50.1703 40.0999C49.6436 37.9143 47.7055 36.3878 45.4567 36.3878C42.637 36.3878 21.0634 36.3878 18.5431 36.3878C16.2947 36.3878 14.3564 37.9143 13.8294 40.0999L9.39015 58.5152C8.65536 61.5638 10.9641 64.5 14.1038 64.5H49.8962C53.0321 64.5 55.3457 61.5683 54.6096 58.5152ZM14.1038 61.2677C13.0588 61.2677 12.2875 60.2903 12.5327 59.2728L16.9719 40.8573C17.1475 40.1287 17.7936 39.6201 18.5433 39.6201H25.9012L23.8631 54.038C23.8027 54.4647 23.9151 54.8976 24.1754 55.2406L28.7459 61.2677H14.1038ZM27.1581 53.8242L29.166 39.6203H34.8342L36.8421 53.8242L32 60.2092L27.1581 53.8242ZM49.8962 61.2677H35.2541L39.8243 55.2408C40.0846 54.8976 40.1971 54.4647 40.1367 54.0382L38.0985 39.6203H45.4565C46.206 39.6203 46.8522 40.1291 47.0278 40.8578L51.4671 59.273C51.7122 60.2895 50.9425 61.2677 49.8962 61.2677Z" fill="#848484"/>
</g>
</g>
</g>
</g>
<defs>
<clipPath id="clip0_153_6136">
<rect width="64" height="64" fill="white" transform="translate(0 0.5)"/>
</clipPath>
</defs>
</svg>
