<svg width="60" height="60" viewBox="0 0 60 60" fill="none" xmlns="http://www.w3.org/2000/svg">
<g id="4">
<circle id="Ellipse" cx="30" cy="30" r="30" fill="#E6EAFA" fill-opacity="0.2"/>
<path id="Vector" d="M43.38 21.5462C42.3924 21.9831 41.3451 22.2701 40.2727 22.3977C41.4026 21.7211 42.248 20.6568 42.6514 19.4031C41.5902 20.0346 40.4267 20.4772 39.2154 20.7166C38.4009 19.8451 37.3212 19.2671 36.1443 19.0725C34.9674 18.8779 33.7592 19.0776 32.7075 19.6405C31.6557 20.2034 30.8195 21.098 30.3286 22.1852C29.8378 23.2725 29.7199 24.4914 29.9933 25.6525C27.841 25.5448 25.7355 24.9857 23.8134 24.0114C21.8913 23.037 20.1956 21.6693 18.8364 19.9971C18.3554 20.8233 18.1026 21.7626 18.1039 22.7187C18.1039 24.5952 19.0603 26.253 20.511 27.2236C19.6517 27.1965 18.8114 26.9645 18.0599 26.5468V26.6128C18.0599 27.8628 18.4922 29.0743 19.2836 30.0419C20.0749 31.0094 21.1766 31.6735 22.4018 31.9214C21.6041 32.1378 20.7677 32.1697 19.9558 32.0146C20.3013 33.0905 20.9746 34.0315 21.8815 34.7056C22.7885 35.3798 23.8835 35.7534 25.0134 35.7741C23.8905 36.656 22.6048 37.3079 21.2298 37.6925C19.8548 38.0771 18.4175 38.1869 17 38.0156C19.4741 39.6066 22.354 40.4512 25.2955 40.4486C35.2527 40.4486 40.6959 32.2009 40.6959 25.0482C40.6959 24.8152 40.6908 24.5797 40.6804 24.348C41.7395 23.5823 42.6537 22.6327 43.38 21.5462Z" fill="#072AC8"/>
</g>
</svg>
