<svg width="81" height="75" viewBox="0 0 81 75" fill="none" xmlns="http://www.w3.org/2000/svg">
<g id="Visa">
<g id="logo">
<path id="polygon9" fill-rule="evenodd" clip-rule="evenodd" d="M35.7746 48.5111H30.0332L33.6243 28.488H39.3654L35.7746 48.5111Z" fill="#072AC8"/>
<path id="path11" fill-rule="evenodd" clip-rule="evenodd" d="M56.5899 28.9775C55.4575 28.5723 53.6613 28.125 51.4403 28.125C45.7705 28.125 41.7778 30.8514 41.7533 34.7493C41.7062 37.6252 44.6119 39.2226 46.7852 40.1815C49.0065 41.1613 49.7616 41.8009 49.7616 42.6743C49.739 44.0157 47.9666 44.634 46.3136 44.634C44.0214 44.634 42.7932 44.3152 40.9266 43.5689L40.1706 43.249L39.3672 47.7438C40.7138 48.297 43.1947 48.7879 45.7705 48.8094C51.7948 48.8094 55.7168 46.1252 55.7633 41.9713C55.7862 39.692 54.2519 37.9454 50.9439 36.5182C48.9358 35.6021 47.706 34.9843 47.706 34.0469C47.7296 33.1947 48.7462 32.3219 51.013 32.3219C52.8795 32.2792 54.2509 32.6837 55.2898 33.0886L55.8091 33.3012L56.5899 28.9775Z" fill="#072AC8"/>
<path id="path13" fill-rule="evenodd" clip-rule="evenodd" d="M66.865 28.488H71.306L75.9379 48.5108H70.6219C70.6219 48.5108 70.1016 46.2102 69.9368 45.5072H62.5652C62.3521 46.0395 61.3603 48.5108 61.3603 48.5108H55.3359L63.8641 30.1494C64.455 28.8499 65.4955 28.488 66.865 28.488ZM66.5123 35.8154C66.5123 35.8154 64.6929 40.2673 64.22 41.4176H68.9923C68.7562 40.4165 67.6689 35.6237 67.6689 35.6237L67.2677 33.8984C67.0987 34.3427 66.8543 34.9535 66.6895 35.3655C66.5778 35.6447 66.5026 35.8326 66.5123 35.8154Z" fill="#072AC8"/>
<path id="path15" fill-rule="evenodd" clip-rule="evenodd" d="M25.2396 28.488L19.6168 42.1418L19.0024 39.3727C17.9628 36.1775 14.7027 32.7059 11.0645 30.9797L16.2147 48.4899H22.2861L31.3107 28.488H25.2396V28.488Z" fill="#072AC8"/>
<path id="path17" fill-rule="evenodd" clip-rule="evenodd" d="M14.3944 28.488H5.157L5.0625 28.8926C12.2683 30.5542 17.0405 34.5594 19.0012 39.3735L16.9931 30.1712C16.6625 28.8923 15.6465 28.5302 14.3944 28.488Z" fill="#072AC8"/>
</g>
</g>
</svg>
